<svg id="logo" xmlns="http://www.w3.org/2000/svg" xmlns:xlink="http://www.w3.org/1999/xlink" width="285.188" height="85" viewBox="0 0 285.188 85">
  <defs>
    <style>
      .cls-1 {
        fill: #fff;
      }

      .cls-1, .cls-2, .cls-3, .cls-4, .cls-5 {
        fill-rule: evenodd;
      }

      .cls-2 {
        fill: url(#linear-gradient);
      }

      .cls-3 {
        fill: url(#linear-gradient-2);
      }

      .cls-4 {
        fill: url(#linear-gradient-3);
      }

      .cls-5 {
        fill: #c0dbf4;
      }
    </style>
    <linearGradient id="linear-gradient" x1="161" y1="128.109" x2="242" y2="164.172" gradientUnits="userSpaceOnUse">
      <stop offset="0" stop-color="#fff"/>
      <stop offset="0.26" stop-color="#fff"/>
      <stop offset="0.985" stop-color="#fff" stop-opacity="0.231"/>
      <stop offset="1" stop-color="#fff"/>
    </linearGradient>
    <linearGradient id="linear-gradient-2" y1="110.468" y2="146.532" xlink:href="#linear-gradient"/>
    <linearGradient id="linear-gradient-3" y1="92.828" y2="128.891" xlink:href="#linear-gradient"/>
  </defs>
  <path id="Engine_" data-name="Engine " class="cls-1" d="M302.51,100.339v5.28H287.43v6.12h13.84v4.88H287.43v7h15.4v5.28H281.15v-28.56h21.36Zm14,0,11.92,19.16h0.08v-19.16h5.88V128.9h-6.28l-11.88-19.12h-0.08V128.9h-5.88v-28.56h6.24Zm43.52,28.34a10.532,10.532,0,0,1-4.12.86,14.641,14.641,0,0,1-5.9-1.14,12.644,12.644,0,0,1-4.42-3.14,13.906,13.906,0,0,1-2.76-4.7,17.249,17.249,0,0,1-.96-5.82,17.84,17.84,0,0,1,.96-5.94,14.265,14.265,0,0,1,2.76-4.78,12.612,12.612,0,0,1,4.42-3.2,14.411,14.411,0,0,1,5.9-1.16,13.871,13.871,0,0,1,4.26.66,12.063,12.063,0,0,1,3.72,1.94,10.488,10.488,0,0,1,4.06,7.48h-6a6.015,6.015,0,0,0-2.16-3.6,6.283,6.283,0,0,0-3.88-1.2,7.324,7.324,0,0,0-3.6.82,6.786,6.786,0,0,0-2.4,2.2,9.62,9.62,0,0,0-1.34,3.14,15.622,15.622,0,0,0-.42,3.64,14.543,14.543,0,0,0,.42,3.5,9.451,9.451,0,0,0,1.34,3.06,6.872,6.872,0,0,0,2.4,2.18,7.335,7.335,0,0,0,3.6.82,6.128,6.128,0,0,0,6.8-6.16h-6.32v-4.68h12V128.9h-4l-0.64-3.24A9.418,9.418,0,0,1,360.03,128.679Zm22.919-28.34V128.9h-6.28v-28.56h6.28Zm14.96,0,11.92,19.16h0.08v-19.16h5.88V128.9h-6.28l-11.88-19.12h-0.08V128.9h-5.88v-28.56h6.24Zm47.96,0v5.28h-15.08v6.12h13.84v4.88h-13.84v7h15.4v5.28h-21.68v-28.56h21.36Z" transform="translate(-161 -86)"/>
  <g id="icon">
    <path id="Shape_590_copy_2" data-name="Shape 590 copy 2" class="cls-2" d="M200.69,171L242,146.943l-40.5-25.66L161,146.943Z" transform="translate(-161 -86)"/>
    <path id="Shape_590_copy" data-name="Shape 590 copy" class="cls-3" d="M200.69,153.359L242,129.3l-40.5-25.661L161,129.3Z" transform="translate(-161 -86)"/>
    <path class="cls-4" d="M200.69,135.717L242,111.661,201.5,86,161,111.661Z" transform="translate(-161 -86)"/>
  </g>
  <path id="Hosting" class="cls-5" d="M283.175,141.907v8.6H293.7v-8.6h2.66V161.9H293.7v-9.156H283.175V161.9h-2.66V141.907h2.66Zm20.649,15.106a4.89,4.89,0,0,0,.966,1.708,4.2,4.2,0,0,0,1.442,1.05,4.389,4.389,0,0,0,3.5,0,4.2,4.2,0,0,0,1.442-1.05,4.89,4.89,0,0,0,.966-1.708,7.984,7.984,0,0,0,0-4.676,5.022,5.022,0,0,0-.966-1.722,4.1,4.1,0,0,0-1.442-1.064,4.389,4.389,0,0,0-3.5,0,4.1,4.1,0,0,0-1.442,1.064,5.022,5.022,0,0,0-.966,1.722A7.984,7.984,0,0,0,303.824,157.013Zm-2.422-5.32a6.764,6.764,0,0,1,1.344-2.408,6.323,6.323,0,0,1,2.212-1.61,8.106,8.106,0,0,1,6.062,0,6.352,6.352,0,0,1,2.2,1.61,6.764,6.764,0,0,1,1.344,2.408,9.631,9.631,0,0,1,.448,2.982,9.5,9.5,0,0,1-.448,2.968,6.8,6.8,0,0,1-1.344,2.394,6.217,6.217,0,0,1-2.2,1.6,8.29,8.29,0,0,1-6.062,0,6.191,6.191,0,0,1-2.212-1.6,6.8,6.8,0,0,1-1.344-2.394,9.5,9.5,0,0,1-.448-2.968A9.631,9.631,0,0,1,301.4,151.693Zm19.628,6.972a2.536,2.536,0,0,0,.882.868,4,4,0,0,0,1.232.462,7.071,7.071,0,0,0,1.414.14,8.721,8.721,0,0,0,1.176-.084,4.338,4.338,0,0,0,1.134-.308,2.14,2.14,0,0,0,.854-0.658,1.755,1.755,0,0,0,.336-1.106,1.586,1.586,0,0,0-.7-1.4,5.943,5.943,0,0,0-1.75-.77q-1.05-.294-2.282-0.532a11.874,11.874,0,0,1-2.282-.672,4.734,4.734,0,0,1-1.75-1.218,3.165,3.165,0,0,1-.7-2.184,3.464,3.464,0,0,1,.49-1.876,3.983,3.983,0,0,1,1.26-1.274,5.756,5.756,0,0,1,1.736-.728,7.975,7.975,0,0,1,1.918-.238,11.435,11.435,0,0,1,2.268.21,5.24,5.24,0,0,1,1.834.728,3.771,3.771,0,0,1,1.274,1.4,5.319,5.319,0,0,1,.56,2.2h-2.38a2.419,2.419,0,0,0-.364-1.162,2.386,2.386,0,0,0-.784-0.742,3.567,3.567,0,0,0-1.05-.406,5.406,5.406,0,0,0-1.162-.126,7.079,7.079,0,0,0-1.078.084,3.624,3.624,0,0,0-.994.294,1.986,1.986,0,0,0-.728.56,1.408,1.408,0,0,0-.28.91,1.339,1.339,0,0,0,.434,1.022,3.485,3.485,0,0,0,1.106.672,9.8,9.8,0,0,0,1.512.448q0.84,0.181,1.68.378a17.669,17.669,0,0,1,1.75.476,5.7,5.7,0,0,1,1.512.742,3.632,3.632,0,0,1,1.064,1.162,3.417,3.417,0,0,1,.406,1.736,4.034,4.034,0,0,1-.546,2.184,4.277,4.277,0,0,1-1.428,1.4,5.986,5.986,0,0,1-1.988.742,11.766,11.766,0,0,1-2.2.21,10.181,10.181,0,0,1-2.3-.252,5.645,5.645,0,0,1-1.932-.826,4.218,4.218,0,0,1-1.344-1.512,5.236,5.236,0,0,1-.56-2.282h2.38A2.674,2.674,0,0,0,321.03,158.665ZM340.8,147.423v2.1h-2.884v8.988a2.582,2.582,0,0,0,.07.672,0.689,0.689,0,0,0,.266.392,1.174,1.174,0,0,0,.546.182,7.925,7.925,0,0,0,.91.042H340.8v2.1h-1.82a8.541,8.541,0,0,1-1.582-.126,2.319,2.319,0,0,1-1.064-.462,1.97,1.97,0,0,1-.6-0.952,5.491,5.491,0,0,1-.2-1.624v-9.212H333.07v-2.1h2.464v-4.34h2.38v4.34H340.8Zm4.172-2.6v-2.912h2.38v2.912h-2.38Zm2.38,2.6V161.9h-2.38V147.423h2.38Zm7.335,0v2.3h0.056a5.01,5.01,0,0,1,4.7-2.632,6.27,6.27,0,0,1,2.38.392,3.9,3.9,0,0,1,1.54,1.092,4.057,4.057,0,0,1,.826,1.666,8.941,8.941,0,0,1,.238,2.142v9.52h-2.38v-9.8a2.873,2.873,0,0,0-.784-2.128,2.912,2.912,0,0,0-2.156-.784,4.851,4.851,0,0,0-1.89.336,3.543,3.543,0,0,0-1.33.952,4.083,4.083,0,0,0-.8,1.442,5.868,5.868,0,0,0-.266,1.806V161.9h-2.38V147.423h2.24Zm25.592,18.564q-1.624,1.764-5.1,1.764a9.87,9.87,0,0,1-2.058-.224,6.32,6.32,0,0,1-1.9-.728,4.439,4.439,0,0,1-1.414-1.316,3.744,3.744,0,0,1-.616-1.988h2.38a1.764,1.764,0,0,0,.406,1.092,2.976,2.976,0,0,0,.924.728,4.5,4.5,0,0,0,1.19.406,6.417,6.417,0,0,0,1.232.126,4.421,4.421,0,0,0,1.988-.406,3.741,3.741,0,0,0,1.344-1.12,4.622,4.622,0,0,0,.77-1.722,9.611,9.611,0,0,0,.238-2.212v-0.952h-0.056a4,4,0,0,1-1.862,1.974,5.787,5.787,0,0,1-2.646.63,6.376,6.376,0,0,1-2.828-.588,5.92,5.92,0,0,1-2.016-1.582,6.758,6.758,0,0,1-1.218-2.324,9.579,9.579,0,0,1-.406-2.814,10.993,10.993,0,0,1,.336-2.646,7.2,7.2,0,0,1,1.12-2.464,6.132,6.132,0,0,1,2.072-1.82,6.447,6.447,0,0,1,3.164-.714,5.333,5.333,0,0,1,2.52.6,4.233,4.233,0,0,1,1.792,1.806h0.028v-2.072h2.24v13.244A7.623,7.623,0,0,1,380.277,165.987Zm-3.038-6.51a3.9,3.9,0,0,0,1.33-1.288,5.9,5.9,0,0,0,.742-1.806,8.728,8.728,0,0,0,.238-2.016,7.95,7.95,0,0,0-.224-1.876,5.212,5.212,0,0,0-.714-1.666,3.7,3.7,0,0,0-1.274-1.19,3.777,3.777,0,0,0-1.9-.448,4.1,4.1,0,0,0-1.96.434,3.8,3.8,0,0,0-1.33,1.162,4.934,4.934,0,0,0-.756,1.68,8.145,8.145,0,0,0-.238,1.988,9.954,9.954,0,0,0,.2,1.96,5.594,5.594,0,0,0,.672,1.778,3.778,3.778,0,0,0,1.26,1.288,3.641,3.641,0,0,0,1.96.49A3.865,3.865,0,0,0,377.239,159.477Z" transform="translate(-161 -86)"/>
</svg>
