<svg xmlns="http://www.w3.org/2000/svg" xmlns:xlink="http://www.w3.org/1999/xlink" viewBox="0 0 46.2 39.2"><defs><style>.cls-1{fill:url(#linear-gradient);}.cls-2{fill:url(#linear-gradient-2);}.cls-3{fill:#fff;}.cls-4{fill:#c2c6c4;}.cls-5{fill:url(#linear-gradient-3);}.cls-6{fill:#276acc;}.cls-7{fill:#172d72;}.cls-8{fill:url(#linear-gradient-4);}.cls-9{fill:#c9c9c9;}.cls-10{fill:#ff8d08;}</style><linearGradient id="linear-gradient" x1="10.82" y1="0.01" x2="41.12" y2="30.25" gradientUnits="userSpaceOnUse"><stop offset="0" stop-color="#102768"/><stop offset="0.49" stop-color="#1f3fb7"/><stop offset="1" stop-color="#0089fd"/></linearGradient><linearGradient id="linear-gradient-2" x1="18.3" y1="26.45" x2="9.93" y2="15.7" gradientUnits="userSpaceOnUse"><stop offset="0" stop-color="#3cd4d6"/><stop offset="0.22" stop-color="#86dbd0"/><stop offset="0.4" stop-color="#bee0cb"/><stop offset="0.48" stop-color="#d3e2c9"/><stop offset="1" stop-color="#f8cc99"/></linearGradient><linearGradient id="linear-gradient-3" x1="1.8" y1="25.37" x2="43.15" y2="25.37" gradientUnits="userSpaceOnUse"><stop offset="0" stop-color="#1a7ff4"/><stop offset="0.18" stop-color="#1d7aeb"/><stop offset="0.48" stop-color="#256dd1"/><stop offset="0.53" stop-color="#276acc"/><stop offset="1" stop-color="#4949c4"/></linearGradient><linearGradient id="linear-gradient-4" x1="26" y1="13.76" x2="20.01" y2="7.78" gradientUnits="userSpaceOnUse"><stop offset="0" stop-color="#22b3ff"/><stop offset="0.12" stop-color="#23aaf8"/><stop offset="0.32" stop-color="#2490e6"/><stop offset="0.55" stop-color="#276acc"/><stop offset="1" stop-color="#4949c4"/></linearGradient></defs><title>logo-slothking</title><g id="Layer_2" data-name="Layer 2"><g id="Layer_1-2" data-name="Layer 1"><path class="cls-1" d="M9.77,8a7.16,7.16,0,0,1,7.12,7.21c0,.49,0,1.05-.07,1.66a2.68,2.68,0,0,1,1.4-.39,2.84,2.84,0,0,1,1.27.32,2.6,2.6,0,0,1,1.38,2.3,2.42,2.42,0,0,1-.44,1.43,9,9,0,0,0-1.56,5.24,8.32,8.32,0,0,0,9.64,7.54c4.33-.74,9.91-4.76,6.35-16.93a.19.19,0,0,0,0-.07l0-.17a2.17,2.17,0,0,1,0-.25,3.92,3.92,0,0,1,.89-2.61,4,4,0,0,1,.77-.72h0A3.23,3.23,0,0,1,37.69,12a4.25,4.25,0,0,1,.8-.07,4.47,4.47,0,0,1,3.18,1.31,4.28,4.28,0,0,1,.64.83A20.44,20.44,0,0,0,22.61,0,20.71,20.71,0,0,0,4.53,10.28,7.07,7.07,0,0,1,9.77,8Z"/><path class="cls-2" d="M9.77,8a7.07,7.07,0,0,0-5.24,2.33,7.16,7.16,0,0,0-1.45,2.44.59.59,0,0,1,.06-.14,1.84,1.84,0,0,1,.56-.65l0,0a2,2,0,0,1,1.12-.35,1.92,1.92,0,0,1,1.95,1.9,2,2,0,0,1-.08.55A16.18,16.18,0,0,0,6,19c0,.6.1,1.79.1,1.79a7.81,7.81,0,0,0,2.4,4.88c5.07,4,4.92-1.9,5.5-3.92.51-1.79,1.4-4,2.86-4.88.05-.61.07-1.17.07-1.66A7.16,7.16,0,0,0,9.77,8Z"/><path class="cls-3" d="M18.27,13.41l-9.12,10c-.18.19,26.68,0,26.68,0L46,10.48l-23.3-.13s-1.68-.16-2.15.43S18.27,13.41,18.27,13.41Z"/><path class="cls-4" d="M9.86,25.36l25.75.05a1,1,0,0,0,.76-.36L45.91,13a1.41,1.41,0,0,0,.28-1.07L46,10.48,35.83,23.4H9.15v1.26A.7.7,0,0,0,9.86,25.36Z"/><path class="cls-5" d="M42.18,13.88a2.85,2.85,0,0,0-.51-.66,4.47,4.47,0,0,0-3.18-1.31,4.25,4.25,0,0,0-.8.07,3.2,3.2,0,0,0-1.26.53,4,4,0,0,0-.77.72,3.92,3.92,0,0,0-.89,2.61,2.17,2.17,0,0,0,0,.25l0,.17a.19.19,0,0,1,0,.07c3.56,12.17-2,16.19-6.35,16.93a8.32,8.32,0,0,1-9.64-7.54,9,9,0,0,1,1.56-5.24,2.42,2.42,0,0,0,.44-1.43,2.6,2.6,0,0,0-1.38-2.3,2.84,2.84,0,0,0-1.27-.32,2.68,2.68,0,0,0-1.4.39c-1.46.88-2.35,3.09-2.86,4.88-.58,2-.43,7.92-5.5,3.92a7.81,7.81,0,0,1-2.4-4.88S6,19.55,6,19A16.18,16.18,0,0,1,6.73,14a2,2,0,0,0,.08-.55,1.92,1.92,0,0,0-1.95-1.9,2,2,0,0,0-1.12.35l0,0a1.84,1.84,0,0,0-.56.65,1.07,1.07,0,0,0-.07.15l0,.06A1.27,1.27,0,0,1,3,13c-.62,1.43-2.76,11.17,1,17.25,0,0-.32-2.24-.35-3.22a1.24,1.24,0,0,1,0-.38,3.76,3.76,0,0,0,.08.64,15,15,0,0,0,3.15,6.05l-.23-1.42-.06-.34s0,.16.14.44c.36,1,1.55,3.32,5.06,5.31a13,13,0,0,1-1.15-1.8l-.12-.24a20.81,20.81,0,0,0,11.39,3.92l.8,0a21.6,21.6,0,0,0,5.73-.79l.42-.12.18-.06c.52-.16,1-.34,1.52-.55A20.14,20.14,0,0,0,43.15,19.25a19.39,19.39,0,0,0-.29-2.95c-.07-.4-.15-.79-.25-1.18l-.15-.58A2.79,2.79,0,0,0,42.18,13.88Z"/><path class="cls-6" d="M10.76,8.32a1.61,1.61,0,0,0-1,.79,1.63,1.63,0,0,0-.18.43,1,1,0,0,0,0,.24,1.73,1.73,0,0,0,.05.51,1.6,1.6,0,0,0,.17.46A2.17,2.17,0,0,0,11,11.7a7.25,7.25,0,0,0,1.74.26,7,7,0,0,1,.8.11,8,8,0,0,1,1.07.27,5.38,5.38,0,0,1,1.09.5,2.89,2.89,0,0,1,.87.8,2.14,2.14,0,0,1,.32.64,7.22,7.22,0,0,0-3.6-5.43A4.78,4.78,0,0,0,12,8.37,2.65,2.65,0,0,0,10.76,8.32Z"/><path class="cls-6" d="M3.11,15.25c.48,2,2.88,4.56,2.88,4.56,0-.31,0-.63,0-.86A16.18,16.18,0,0,1,6.73,14a2,2,0,0,0,.08-.55,1.92,1.92,0,0,0-1.95-1.9l-.28,0h0a1.81,1.81,0,0,0-.77.31C2.66,12.68,3,14.71,3.11,15.25Z"/><path class="cls-7" d="M9.05,12.72c-1.15.66-1.25,1.18-.78,1.8.34.45,1.79,0,1.83,0s1.16-1,.93-1.55C10.71,12.24,10.2,12.06,9.05,12.72Z"/><path class="cls-8" d="M19,12.6a21.38,21.38,0,0,1,3.49-4.21A3.17,3.17,0,0,1,25.78,8a3.13,3.13,0,0,1,1.69,3.43,3,3,0,0,1-4,2.2A2.58,2.58,0,0,1,22,10.33a3.73,3.73,0,0,0-1,.19A17.71,17.71,0,0,0,19,12.6Z"/><path class="cls-3" d="M23.42,24.39,20.5,28.63a1.53,1.53,0,0,0-1.81.57,1.48,1.48,0,0,0,.41,2.09,1.57,1.57,0,0,0,2.14-.41A1.49,1.49,0,0,0,21.09,29l3.21-4.67Z"/><path class="cls-9" d="M34.39,6.21a1.49,1.49,0,0,0,.15,1.86L33,10.41h.84l1.31-2a1.53,1.53,0,0,0,1.81-.56,1.5,1.5,0,0,0-.41-2.1A1.57,1.57,0,0,0,34.39,6.21Z"/><path class="cls-10" d="M9.57,3.65A28,28,0,0,1,8.3,6.44L3.85,3.94,3.59,9.35A25.58,25.58,0,0,1,0,9c.57,1.12,1.75,3.19,2.72,4.76A7,7,0,0,1,3,13c0-.06,0-.12,0-.17l0-.07h0a7.25,7.25,0,0,1,1.45-2.44A7.09,7.09,0,0,1,9.77,7.94a6.9,6.9,0,0,1,2.53.48A33.47,33.47,0,0,0,9.57,3.65Z"/><ellipse class="cls-7" cx="5.79" cy="13" rx="0.52" ry="0.51"/><ellipse class="cls-7" cx="10.82" cy="10.33" rx="0.52" ry="0.51"/></g></g></svg>