<?xml version="1.0" encoding="utf-8"?>
<!-- Generator: Adobe Illustrator 21.0.0, SVG Export Plug-In . SVG Version: 6.00 Build 0)  -->
<svg version="1.1" id="Слой_1" xmlns="http://www.w3.org/2000/svg" xmlns:xlink="http://www.w3.org/1999/xlink" x="0px" y="0px"
	 viewBox="0 0 86.3 65.3" style="enable-background:new 0 0 86.3 65.3;" xml:space="preserve">
<style type="text/css">
	.st0{fill:#0479EC;}
</style>
<g>
	<path class="st0" d="M12,63.3h62.5c5.4,0,9.7-4.4,9.7-9.7V12c0-5.4-4.4-9.7-9.7-9.7H12c-5.3,0-9.7,4.4-9.7,9.7v41.5
		C2.3,58.9,6.7,63.3,12,63.3z M80.3,53.6c0,0.3,0,0.6-0.1,0.9L59.4,33.6l-2.8,2.8L78.2,58c-1,0.8-2.2,1.3-3.6,1.3H12
		c-1.4,0-2.6-0.5-3.6-1.3L30,36.4l7.6,7.6c1.6,1.6,3.7,2.3,5.7,2.3s4.1-0.8,5.6-2.3l31.4-31.4C80.3,12.6,80.3,53.6,80.3,53.6z
		 M12,6.3h62.5c1.8,0,3.3,0.8,4.4,2L46.1,41.2c-1.5,1.5-4,1.5-5.6,0L7.7,8.3C8.7,7.1,10.3,6.3,12,6.3z M6.3,12.6l20.9,20.9L6.4,54.4
		c0-0.3-0.1-0.6-0.1-0.9V12.6z"/>
</g>
</svg>
