<svg id="Layer_1" data-name="Layer 1" xmlns="http://www.w3.org/2000/svg" viewBox="0 0 320.49 61.31"><defs><style>.cls-1{fill:#00d664;}</style></defs><title>netguru_logo</title><path class="cls-1" d="M264.05,328.29a3.36,3.36,0,0,1-3.36-3.36v-54.6a3.36,3.36,0,0,1,5.73-2.37l20,20a3.36,3.36,0,1,1-4.74,4.75l-14.27-14.26v46.5A3.35,3.35,0,0,1,264.05,328.29Z" transform="translate(-260.7 -266.98)"/><path class="cls-1" d="M318.66,328.29a3.35,3.35,0,0,1-2.37-1l-20-20a3.35,3.35,0,0,1,4.74-4.74l14.27,14.26v-46.5a3.35,3.35,0,1,1,6.71,0v54.6A3.36,3.36,0,0,1,318.66,328.29Z" transform="translate(-260.7 -266.98)"/><path d="M381.17,293.73V313h-6.72V295.93c0-5.15-2.66-8-7.14-8-4.32,0-7.94,2.85-7.94,8.1v17h-6.72V282.51a1.28,1.28,0,0,1,2.18-.9l4.47,4.47h0a10.88,10.88,0,0,1,9.41-4.54C376,281.54,381.17,286.56,381.17,293.73Z" transform="translate(-260.7 -266.98)"/><path d="M417.61,297.63c0,0.86-.06,1.73-0.13,2.5H394.83c0.9,5.5,4.77,7.81,9.12,7.81a14.65,14.65,0,0,0,8.86-3.23l3.33,4.77a18.47,18.47,0,0,1-12.61,4.32c-9.18,0-15.68-6.4-15.68-16.13s6.24-16.13,15.26-16.13C411.69,281.54,417.58,288.06,417.61,297.63ZM394.86,295h15.9c-0.74-4.77-3.52-7.55-7.78-7.55C398.22,287.49,395.56,290.56,394.86,295Z" transform="translate(-260.7 -266.98)"/><path d="M445.19,288.42H433.44v13.34c0,4.13,2.18,5.73,4.86,5.73a12.27,12.27,0,0,0,6.18-2.08l2.66,5.34a16.56,16.56,0,0,1-9.41,3c-6.94,0-11-3.74-11-11.9V288.42h-6.11v-6.08h6.11v-9.28h6.72v9.28h11.74v6.08Z" transform="translate(-260.7 -266.98)"/><path d="M474.27,286v-3.68H481v28.51c0,9.63-6.21,15.55-16.45,15.55-4.57,0-9.6-1.25-12.83-3.55l2.43-5.66a20.1,20.1,0,0,0,10.4,3.1c6.27,0,9.73-3.46,9.73-9.15v-2.46c-2.3,2.94-5.76,4.48-10.21,4.48-7,0-14.21-5.89-14.21-15.81s7.2-15.81,14.21-15.81C468.51,281.54,472,283.1,474.27,286Zm-17.54,11.33c0,5.15,3.39,9.5,9.05,9.5,5.41,0,9.05-4.13,9.05-9.5s-3.65-9.5-9.05-9.5C460.12,287.84,456.73,292.16,456.73,297.34Z" transform="translate(-260.7 -266.98)"/><path d="M547.84,282.4l-1.6,6.62a11.93,11.93,0,0,0-5.09-1.12c-4.26,0-7.29,3-7.29,8.22V313h-6.69V282.34h6.62v3.46c2-2.91,5.15-4.26,8.89-4.26A13.38,13.38,0,0,1,547.84,282.4Z" transform="translate(-260.7 -266.98)"/><path d="M489.77,301.6V282.33h6.72v17.06c0,5.15,2.66,8,7.14,8,4.32,0,7.94-2.85,7.94-8.1v-17h6.72v30.48a1.28,1.28,0,0,1-2.18.9l-4.47-4.47h0a10.88,10.88,0,0,1-9.41,4.54C494.93,313.79,489.77,308.77,489.77,301.6Z" transform="translate(-260.7 -266.98)"/><path d="M552.68,301.6V282.33h6.72v17.06c0,5.15,2.66,8,7.14,8,4.32,0,7.93-2.85,7.93-8.1v-17h6.72v30.48a1.28,1.28,0,0,1-2.18.9l-4.47-4.47h0a10.88,10.88,0,0,1-9.41,4.54C557.83,313.79,552.68,308.77,552.68,301.6Z" transform="translate(-260.7 -266.98)"/></svg>