<?xml version="1.0" encoding="utf-8"?>
<!-- Generator: Adobe Illustrator 21.0.0, SVG Export Plug-In . SVG Version: 6.00 Build 0)  -->
<svg version="1.1" id="illustration" xmlns="http://www.w3.org/2000/svg" xmlns:xlink="http://www.w3.org/1999/xlink" x="0px"
	 y="0px" viewBox="0 0 1029 870" style="enable-background:new 0 0 1029 870;" xml:space="preserve">
<style type="text/css">
	.st0{fill:none;enable-background:new    ;}
	.st1{fill:#3972E7;}
	.st2{fill:#59A8F2;}
	.st3{fill:#71B8FA;}
	.st4{fill:#DEEDFA;}
	.st5{opacity:0.2;fill:#1F4965;enable-background:new    ;}
	.st6{fill:#2676C5;}
	.st7{fill:#43DCCB;}
	.st8{fill:#F36140;}
	.st9{opacity:0.2;fill:none;stroke:#71B8FA;stroke-width:4;enable-background:new    ;}
	.st10{fill:#2576C5;}
	.st11{fill:#5CAAF5;}
	.st12{opacity:0.2;fill:#4E9DE8;enable-background:new    ;}
	.st13{opacity:0.3;fill:#FFFFFF;enable-background:new    ;}
	.st14{fill:#FFFFFF;}
</style>
<image style="overflow:visible;" width="325" height="39" xlink:href="D1AC4EFF.png"  transform="matrix(5.0954 0 0 26.9744 -627 -166)">
</image>
<path class="st0" d="z"/>
<rect class="st1" width="104" height="870"/>
<rect id="Rectangle_35_copy" x="102" class="st1" width="300" height="870"/>
<rect id="Rectangle_35_copy_2" x="397" class="st2" width="300" height="870"/>
<path class="st3" d="M696,869l-167-46H396v46H696z"/>
<rect id="Rectangle_35_copy_3" x="697" class="st4" width="173" height="870"/>
<path id="Rounded_Rectangle_566" class="st5" d="M841.5,375L841.5,375c1.9,0,3.5,1.6,3.5,3.5v66c0,1.9-1.6,3.5-3.5,3.5l0,0
	c-1.9,0-3.5-1.6-3.5-3.5v-66C838,376.6,839.6,375,841.5,375z"/>
<g id="_1">
	<path id="Rounded_Rectangle_567" class="st6" d="M397.1,110H641c5.5,0,10,5.6,10,12.5v41.1c0,6.9-4.5,12.5-10,12.5H397.1
		c0,0,0-5.6,0-12.5v-41.1C397.1,115.6,396.8,110,397.1,110z"/>
	<path id="Rounded_Rectangle_568" class="st2" d="M514,122L514,122c4.4,0,8,3.6,8,8v26c0,4.4-3.6,8-8,8l0,0c-4.4,0-8-3.6-8-8v-26
		C506,125.6,509.6,122,514,122z"/>
	<path id="Rounded_Rectangle_568_copy" class="st2" d="M540,122L540,122c4.4,0,8,3.6,8,8v26c0,4.4-3.6,8-8,8l0,0c-4.4,0-8-3.6-8-8
		v-26C532,125.6,535.6,122,540,122z"/>
	<path id="Rounded_Rectangle_568_copy_2" class="st2" d="M566,122L566,122c4.4,0,8,3.6,8,8v26c0,4.4-3.6,8-8,8l0,0c-4.4,0-8-3.6-8-8
		v-26C558,125.6,561.6,122,566,122z"/>
	<path id="Rounded_Rectangle_568_copy_2-2" class="st2" d="M592,122L592,122c4.4,0,8,3.6,8,8v26c0,4.4-3.6,8-8,8l0,0
		c-4.4,0-8-3.6-8-8v-26C584,125.6,587.6,122,592,122z"/>
	<path id="Rounded_Rectangle_568_copy_3" class="st2" d="M617,122L617,122c4.4,0,8,3.6,8,8v26c0,4.4-3.6,8-8,8l0,0c-4.4,0-8-3.6-8-8
		v-26C609,125.6,612.6,122,617,122z"/>
	<circle class="st7" cx="421.5" cy="143.5" r="3.5"/>
	<circle id="Ellipse_565_copy" class="st8" cx="432.5" cy="143.5" r="3.5"/>
	<circle id="Ellipse_565_copy_2" class="st2" cx="443.5" cy="143.5" r="3.5"/>
</g>
<g id="_1_copy_6">
	<path id="Rounded_Rectangle_567-2" class="st6" d="M397.1,36H641c5.5,0,10,5.6,10,12.5v41.1c0,6.9-4.5,12.5-10,12.5H397.1
		c0,0,0-5.6,0-12.5V48.5C397.1,41.6,396.8,36,397.1,36z"/>
	<path id="Rounded_Rectangle_568-2" class="st2" d="M514,48L514,48c4.4,0,8,3.6,8,8v26c0,4.4-3.6,8-8,8l0,0c-4.4,0-8-3.6-8-8V56
		C506,51.6,509.6,48,514,48z"/>
	<path id="Rounded_Rectangle_568_copy-2" class="st2" d="M540,48L540,48c4.4,0,8,3.6,8,8v26c0,4.4-3.6,8-8,8l0,0c-4.4,0-8-3.6-8-8
		V56C532,51.6,535.6,48,540,48z"/>
	<path id="Rounded_Rectangle_568_copy_2-3" class="st2" d="M566,48L566,48c4.4,0,8,3.6,8,8v26c0,4.4-3.6,8-8,8l0,0c-4.4,0-8-3.6-8-8
		V56C558,51.6,561.6,48,566,48z"/>
	<path id="Rounded_Rectangle_568_copy_2-4" class="st2" d="M592,48L592,48c4.4,0,8,3.6,8,8v26c0,4.4-3.6,8-8,8l0,0c-4.4,0-8-3.6-8-8
		V56C584,51.6,587.6,48,592,48z"/>
	<path id="Rounded_Rectangle_568_copy_3-2" class="st2" d="M617,48L617,48c4.4,0,8,3.6,8,8v26c0,4.4-3.6,8-8,8l0,0c-4.4,0-8-3.6-8-8
		V56C609,51.6,612.6,48,617,48z"/>
	<circle class="st7" cx="421.5" cy="69.5" r="3.5"/>
	<circle id="Ellipse_565_copy-2" class="st8" cx="432.5" cy="69.5" r="3.5"/>
	<circle id="Ellipse_565_copy_2-2" class="st2" cx="443.5" cy="69.5" r="3.5"/>
</g>
<path class="st9" d="M1027,851c0,0-14.3-10.2-71-14s-85,22-134,23s-127-1-127-1"/>
<g id="_1_copy">
	<path id="Rounded_Rectangle_567-3" class="st6" d="M397.1,184H641c5.5,0,10,5.6,10,12.5v41.1c0,6.9-4.5,12.5-10,12.5H397.1
		c0,0,0-5.6,0-12.5v-41.1C397.1,189.6,396.8,184,397.1,184z"/>
	<path id="Rounded_Rectangle_568-3" class="st2" d="M514,196L514,196c4.4,0,8,3.6,8,8v26c0,4.4-3.6,8-8,8l0,0c-4.4,0-8-3.6-8-8v-26
		C506,199.6,509.6,196,514,196z"/>
	<path id="Rounded_Rectangle_568_copy-3" class="st2" d="M540,196L540,196c4.4,0,8,3.6,8,8v26c0,4.4-3.6,8-8,8l0,0c-4.4,0-8-3.6-8-8
		v-26C532,199.6,535.6,196,540,196z"/>
	<path id="Rounded_Rectangle_568_copy_2-5" class="st2" d="M566,196L566,196c4.4,0,8,3.6,8,8v26c0,4.4-3.6,8-8,8l0,0
		c-4.4,0-8-3.6-8-8v-26C558,199.6,561.6,196,566,196z"/>
	<path id="Rounded_Rectangle_568_copy_2-6" class="st2" d="M592,196L592,196c4.4,0,8,3.6,8,8v26c0,4.4-3.6,8-8,8l0,0
		c-4.4,0-8-3.6-8-8v-26C584,199.6,587.6,196,592,196z"/>
	<path id="Rounded_Rectangle_568_copy_3-3" class="st2" d="M617,196L617,196c4.4,0,8,3.6,8,8v26c0,4.4-3.6,8-8,8l0,0
		c-4.4,0-8-3.6-8-8v-26C609,199.6,612.6,196,617,196z"/>
	<circle class="st7" cx="421.5" cy="217.5" r="3.5"/>
	<circle id="Ellipse_565_copy-3" class="st8" cx="432.5" cy="217.5" r="3.5"/>
	<circle id="Ellipse_565_copy_2-3" class="st2" cx="443.5" cy="217.5" r="3.5"/>
</g>
<g id="_1_copy_2">
	<path id="Rounded_Rectangle_567-4" class="st6" d="M397.1,258H641c5.5,0,10,5.6,10,12.5v41.1c0,6.9-4.5,12.5-10,12.5H397.1
		c0,0,0-5.6,0-12.5v-41.1C397.1,263.6,396.8,258,397.1,258z"/>
	<path id="Rounded_Rectangle_568-4" class="st2" d="M514,270L514,270c4.4,0,8,3.6,8,8v26c0,4.4-3.6,8-8,8l0,0c-4.4,0-8-3.6-8-8v-26
		C506,273.6,509.6,270,514,270z"/>
	<path id="Rounded_Rectangle_568_copy-4" class="st2" d="M540,270L540,270c4.4,0,8,3.6,8,8v26c0,4.4-3.6,8-8,8l0,0c-4.4,0-8-3.6-8-8
		v-26C532,273.6,535.6,270,540,270z"/>
	<path id="Rounded_Rectangle_568_copy_2-7" class="st2" d="M566,270L566,270c4.4,0,8,3.6,8,8v26c0,4.4-3.6,8-8,8l0,0
		c-4.4,0-8-3.6-8-8v-26C558,273.6,561.6,270,566,270z"/>
	<path id="Rounded_Rectangle_568_copy_2-8" class="st2" d="M592,270L592,270c4.4,0,8,3.6,8,8v26c0,4.4-3.6,8-8,8l0,0
		c-4.4,0-8-3.6-8-8v-26C584,273.6,587.6,270,592,270z"/>
	<path id="Rounded_Rectangle_568_copy_3-4" class="st2" d="M617,270L617,270c4.4,0,8,3.6,8,8v26c0,4.4-3.6,8-8,8l0,0
		c-4.4,0-8-3.6-8-8v-26C609,273.6,612.6,270,617,270z"/>
	<circle class="st7" cx="421.5" cy="291.5" r="3.5"/>
	<circle id="Ellipse_565_copy-4" class="st8" cx="432.5" cy="291.5" r="3.5"/>
	<circle id="Ellipse_565_copy_2-4" class="st2" cx="443.5" cy="291.5" r="3.5"/>
</g>
<g id="_1_copy_3">
	<path id="Rounded_Rectangle_567-5" class="st6" d="M397.1,333H641c5.5,0,10,5.6,10,12.5v41.1c0,6.9-4.5,12.5-10,12.5H397.1
		c0,0,0-5.6,0-12.5v-41.1C397.1,338.6,396.8,333,397.1,333z"/>
	<path id="Rounded_Rectangle_568-5" class="st2" d="M514,345L514,345c4.4,0,8,3.6,8,8v26c0,4.4-3.6,8-8,8l0,0c-4.4,0-8-3.6-8-8v-26
		C506,348.6,509.6,345,514,345z"/>
	<path id="Rounded_Rectangle_568_copy-5" class="st2" d="M540,345L540,345c4.4,0,8,3.6,8,8v26c0,4.4-3.6,8-8,8l0,0c-4.4,0-8-3.6-8-8
		v-26C532,348.6,535.6,345,540,345z"/>
	<path id="Rounded_Rectangle_568_copy_2-9" class="st2" d="M566,345L566,345c4.4,0,8,3.6,8,8v26c0,4.4-3.6,8-8,8l0,0
		c-4.4,0-8-3.6-8-8v-26C558,348.6,561.6,345,566,345z"/>
	<path id="Rounded_Rectangle_568_copy_2-10" class="st2" d="M592,345L592,345c4.4,0,8,3.6,8,8v26c0,4.4-3.6,8-8,8l0,0
		c-4.4,0-8-3.6-8-8v-26C584,348.6,587.6,345,592,345z"/>
	<path id="Rounded_Rectangle_568_copy_3-5" class="st2" d="M617,345L617,345c4.4,0,8,3.6,8,8v26c0,4.4-3.6,8-8,8l0,0
		c-4.4,0-8-3.6-8-8v-26C609,348.6,612.6,345,617,345z"/>
	<circle class="st7" cx="421.5" cy="366.5" r="3.5"/>
	<circle id="Ellipse_565_copy-5" class="st8" cx="432.5" cy="366.5" r="3.5"/>
	<circle id="Ellipse_565_copy_2-5" class="st2" cx="443.5" cy="366.5" r="3.5"/>
</g>
<g id="_1_copy_3-2">
	<path id="Rounded_Rectangle_567-6" class="st6" d="M397.1,407H641c5.5,0,10,5.6,10,12.5v41.1c0,6.9-4.5,12.5-10,12.5H397.1
		c0,0,0-5.6,0-12.5v-41.1C397.1,412.6,396.8,407,397.1,407z"/>
	<path id="Rounded_Rectangle_568-6" class="st2" d="M514,419L514,419c4.4,0,8,3.6,8,8v26c0,4.4-3.6,8-8,8l0,0c-4.4,0-8-3.6-8-8v-26
		C506,422.6,509.6,419,514,419z"/>
	<path id="Rounded_Rectangle_568_copy-6" class="st2" d="M540,419L540,419c4.4,0,8,3.6,8,8v26c0,4.4-3.6,8-8,8l0,0c-4.4,0-8-3.6-8-8
		v-26C532,422.6,535.6,419,540,419z"/>
	<path id="Rounded_Rectangle_568_copy_2-11" class="st2" d="M566,419L566,419c4.4,0,8,3.6,8,8v26c0,4.4-3.6,8-8,8l0,0
		c-4.4,0-8-3.6-8-8v-26C558,422.6,561.6,419,566,419z"/>
	<path id="Rounded_Rectangle_568_copy_2-12" class="st2" d="M592,419L592,419c4.4,0,8,3.6,8,8v26c0,4.4-3.6,8-8,8l0,0
		c-4.4,0-8-3.6-8-8v-26C584,422.6,587.6,419,592,419z"/>
	<path id="Rounded_Rectangle_568_copy_3-6" class="st2" d="M617,419L617,419c4.4,0,8,3.6,8,8v26c0,4.4-3.6,8-8,8l0,0
		c-4.4,0-8-3.6-8-8v-26C609,422.6,612.6,419,617,419z"/>
	<circle class="st7" cx="421.5" cy="440.5" r="3.5"/>
	<circle id="Ellipse_565_copy-6" class="st8" cx="432.5" cy="440.5" r="3.5"/>
	<circle id="Ellipse_565_copy_2-6" class="st2" cx="443.5" cy="440.5" r="3.5"/>
</g>
<g id="_1_copy_3-3">
	<path id="Rounded_Rectangle_567-7" class="st6" d="M397.1,481H641c5.5,0,10,5.6,10,12.5v41.1c0,6.9-4.5,12.5-10,12.5H397.1
		c0,0,0-5.6,0-12.5v-41.1C397.1,486.6,396.8,481,397.1,481z"/>
	<path id="Rounded_Rectangle_568-7" class="st2" d="M514,493L514,493c4.4,0,8,3.6,8,8v26c0,4.4-3.6,8-8,8l0,0c-4.4,0-8-3.6-8-8v-26
		C506,496.6,509.6,493,514,493z"/>
	<path id="Rounded_Rectangle_568_copy-7" class="st2" d="M540,493L540,493c4.4,0,8,3.6,8,8v26c0,4.4-3.6,8-8,8l0,0c-4.4,0-8-3.6-8-8
		v-26C532,496.6,535.6,493,540,493z"/>
	<path id="Rounded_Rectangle_568_copy_2-13" class="st2" d="M566,493L566,493c4.4,0,8,3.6,8,8v26c0,4.4-3.6,8-8,8l0,0
		c-4.4,0-8-3.6-8-8v-26C558,496.6,561.6,493,566,493z"/>
	<path id="Rounded_Rectangle_568_copy_2-14" class="st2" d="M592,493L592,493c4.4,0,8,3.6,8,8v26c0,4.4-3.6,8-8,8l0,0
		c-4.4,0-8-3.6-8-8v-26C584,496.6,587.6,493,592,493z"/>
	<path id="Rounded_Rectangle_568_copy_3-7" class="st2" d="M617,493L617,493c4.4,0,8,3.6,8,8v26c0,4.4-3.6,8-8,8l0,0
		c-4.4,0-8-3.6-8-8v-26C609,496.6,612.6,493,617,493z"/>
	<circle class="st7" cx="421.5" cy="514.5" r="3.5"/>
	<circle id="Ellipse_565_copy-7" class="st8" cx="432.5" cy="514.5" r="3.5"/>
	<circle id="Ellipse_565_copy_2-7" class="st2" cx="443.5" cy="514.5" r="3.5"/>
</g>
<g id="_1_copy_4">
	<path id="Rounded_Rectangle_567-8" class="st6" d="M397.1,555H641c5.5,0,10,5.6,10,12.5v41.1c0,6.9-4.5,12.5-10,12.5H397.1
		c0,0,0-5.6,0-12.5v-41.1C397.1,560.6,396.8,555,397.1,555z"/>
	<path id="Rounded_Rectangle_568-8" class="st2" d="M514,567L514,567c4.4,0,8,3.6,8,8v26c0,4.4-3.6,8-8,8l0,0c-4.4,0-8-3.6-8-8v-26
		C506,570.6,509.6,567,514,567z"/>
	<path id="Rounded_Rectangle_568_copy-8" class="st2" d="M540,567L540,567c4.4,0,8,3.6,8,8v26c0,4.4-3.6,8-8,8l0,0c-4.4,0-8-3.6-8-8
		v-26C532,570.6,535.6,567,540,567z"/>
	<path id="Rounded_Rectangle_568_copy_2-15" class="st2" d="M566,567L566,567c4.4,0,8,3.6,8,8v26c0,4.4-3.6,8-8,8l0,0
		c-4.4,0-8-3.6-8-8v-26C558,570.6,561.6,567,566,567z"/>
	<path id="Rounded_Rectangle_568_copy_2-16" class="st2" d="M592,567L592,567c4.4,0,8,3.6,8,8v26c0,4.4-3.6,8-8,8l0,0
		c-4.4,0-8-3.6-8-8v-26C584,570.6,587.6,567,592,567z"/>
	<path id="Rounded_Rectangle_568_copy_3-8" class="st2" d="M617,567L617,567c4.4,0,8,3.6,8,8v26c0,4.4-3.6,8-8,8l0,0
		c-4.4,0-8-3.6-8-8v-26C609,570.6,612.6,567,617,567z"/>
	<circle class="st7" cx="421.5" cy="588.5" r="3.5"/>
	<circle id="Ellipse_565_copy-8" class="st8" cx="432.5" cy="588.5" r="3.5"/>
	<circle id="Ellipse_565_copy_2-8" class="st2" cx="443.5" cy="588.5" r="3.5"/>
</g>
<g id="_1_copy_4-2">
	<path id="Rounded_Rectangle_567-9" class="st6" d="M397.1,629H641c5.5,0,10,5.6,10,12.5v41.1c0,6.9-4.5,12.5-10,12.5H397.1
		c0,0,0-5.6,0-12.5v-41.1C397.1,634.6,396.8,629,397.1,629z"/>
	<path id="Rounded_Rectangle_568-9" class="st2" d="M514,641L514,641c4.4,0,8,3.6,8,8v26c0,4.4-3.6,8-8,8l0,0c-4.4,0-8-3.6-8-8v-26
		C506,644.6,509.6,641,514,641z"/>
	<path id="Rounded_Rectangle_568_copy-9" class="st2" d="M540,641L540,641c4.4,0,8,3.6,8,8v26c0,4.4-3.6,8-8,8l0,0c-4.4,0-8-3.6-8-8
		v-26C532,644.6,535.6,641,540,641z"/>
	<path id="Rounded_Rectangle_568_copy_2-17" class="st2" d="M566,641L566,641c4.4,0,8,3.6,8,8v26c0,4.4-3.6,8-8,8l0,0
		c-4.4,0-8-3.6-8-8v-26C558,644.6,561.6,641,566,641z"/>
	<path id="Rounded_Rectangle_568_copy_2-18" class="st2" d="M592,641L592,641c4.4,0,8,3.6,8,8v26c0,4.4-3.6,8-8,8l0,0
		c-4.4,0-8-3.6-8-8v-26C584,644.6,587.6,641,592,641z"/>
	<path id="Rounded_Rectangle_568_copy_3-9" class="st2" d="M617,641L617,641c4.4,0,8,3.6,8,8v26c0,4.4-3.6,8-8,8l0,0
		c-4.4,0-8-3.6-8-8v-26C609,644.6,612.6,641,617,641z"/>
	<circle class="st7" cx="421.5" cy="662.5" r="3.5"/>
	<circle id="Ellipse_565_copy-9" class="st8" cx="432.5" cy="662.5" r="3.5"/>
	<circle id="Ellipse_565_copy_2-9" class="st2" cx="443.5" cy="662.5" r="3.5"/>
</g>
<g id="_1_copy_5">
	<path id="Rounded_Rectangle_567-10" class="st6" d="M397.1,704H641c5.5,0,10,5.6,10,12.5v41.1c0,6.9-4.5,12.5-10,12.5H397.1
		c0,0,0-5.6,0-12.5v-41.1C397.1,709.6,396.8,704,397.1,704z"/>
	<path id="Rounded_Rectangle_568-10" class="st2" d="M514,716L514,716c4.4,0,8,3.6,8,8v26c0,4.4-3.6,8-8,8l0,0c-4.4,0-8-3.6-8-8v-26
		C506,719.6,509.6,716,514,716z"/>
	<path id="Rounded_Rectangle_568_copy-10" class="st2" d="M540,716L540,716c4.4,0,8,3.6,8,8v26c0,4.4-3.6,8-8,8l0,0
		c-4.4,0-8-3.6-8-8v-26C532,719.6,535.6,716,540,716z"/>
	<path id="Rounded_Rectangle_568_copy_2-19" class="st2" d="M566,716L566,716c4.4,0,8,3.6,8,8v26c0,4.4-3.6,8-8,8l0,0
		c-4.4,0-8-3.6-8-8v-26C558,719.6,561.6,716,566,716z"/>
	<path id="Rounded_Rectangle_568_copy_2-20" class="st2" d="M592,716L592,716c4.4,0,8,3.6,8,8v26c0,4.4-3.6,8-8,8l0,0
		c-4.4,0-8-3.6-8-8v-26C584,719.6,587.6,716,592,716z"/>
	<path id="Rounded_Rectangle_568_copy_3-10" class="st2" d="M617,716L617,716c4.4,0,8,3.6,8,8v26c0,4.4-3.6,8-8,8l0,0
		c-4.4,0-8-3.6-8-8v-26C609,719.6,612.6,716,617,716z"/>
	<circle class="st7" cx="421.5" cy="737.5" r="3.5"/>
	<circle id="Ellipse_565_copy-10" class="st8" cx="432.5" cy="737.5" r="3.5"/>
	<circle id="Ellipse_565_copy_2-10" class="st2" cx="443.5" cy="737.5" r="3.5"/>
</g>
<g id="_1_copy_5-2">
	<path id="Rounded_Rectangle_567-11" class="st6" d="M397.1,778H641c5.5,0,10,5.6,10,12.5v41.1c0,6.9-4.5,12.5-10,12.5H397.1
		c0,0,0-5.6,0-12.5v-41.1C397.1,783.6,396.8,778,397.1,778z"/>
	<path id="Rounded_Rectangle_568-11" class="st2" d="M514,790L514,790c4.4,0,8,3.6,8,8v26c0,4.4-3.6,8-8,8l0,0c-4.4,0-8-3.6-8-8v-26
		C506,793.6,509.6,790,514,790z"/>
	<path id="Rounded_Rectangle_568_copy-11" class="st2" d="M540,790L540,790c4.4,0,8,3.6,8,8v26c0,4.4-3.6,8-8,8l0,0
		c-4.4,0-8-3.6-8-8v-26C532,793.6,535.6,790,540,790z"/>
	<path id="Rounded_Rectangle_568_copy_2-21" class="st2" d="M566,790L566,790c4.4,0,8,3.6,8,8v26c0,4.4-3.6,8-8,8l0,0
		c-4.4,0-8-3.6-8-8v-26C558,793.6,561.6,790,566,790z"/>
	<path id="Rounded_Rectangle_568_copy_2-22" class="st2" d="M592,790L592,790c4.4,0,8,3.6,8,8v26c0,4.4-3.6,8-8,8l0,0
		c-4.4,0-8-3.6-8-8v-26C584,793.6,587.6,790,592,790z"/>
	<path id="Rounded_Rectangle_568_copy_3-11" class="st2" d="M617,790L617,790c4.4,0,8,3.6,8,8v26c0,4.4-3.6,8-8,8l0,0
		c-4.4,0-8-3.6-8-8v-26C609,793.6,612.6,790,617,790z"/>
	<circle class="st7" cx="421.5" cy="811.5" r="3.5"/>
	<circle id="Ellipse_565_copy-11" class="st8" cx="432.5" cy="811.5" r="3.5"/>
	<circle id="Ellipse_565_copy_2-11" class="st2" cx="443.5" cy="811.5" r="3.5"/>
</g>
<path id="Rounded_Rectangle_563" class="st10" d="M186,796h125c1.7,0,3,1.3,3,3l0,0c0,1.7-1.3,3-3,3H186c-1.7,0-3-1.3-3-3l0,0
	C183,797.3,184.3,796,186,796z"/>
<path id="Rounded_Rectangle_563_copy" class="st10" d="M186,782h125c1.7,0,3,1.3,3,3l0,0c0,1.7-1.3,3-3,3H186c-1.7,0-3-1.3-3-3l0,0
	C183,783.3,184.3,782,186,782z"/>
<path id="Rounded_Rectangle_563_copy_2" class="st10" d="M186,768h125c1.7,0,3,1.3,3,3l0,0c0,1.7-1.3,3-3,3H186c-1.7,0-3-1.3-3-3
	l0,0C183,769.3,184.3,768,186,768z"/>
<path id="Rounded_Rectangle_564" class="st11" d="M181,69h135c5.5,0,10,4.5,10,10v408c0,5.5-4.5,10-10,10H181c-5.5,0-10-4.5-10-10
	V79C171,73.5,175.5,69,181,69z"/>
<path class="st12" d="M168,501.8L332,47v459L168,501.8z"/>
<path id="Rounded_Rectangle_565" class="st7" d="M215,519L215,519c5,0,9,4,9,9l0,0c0,5-4,9-9,9l0,0c-5,0-9-4-9-9l0,0
	C206,523,210,519,215,519z"/>
<path id="Rounded_Rectangle_565_copy" class="st13" d="M282,519L282,519c5,0,9,4,9,9l0,0c0,5-4,9-9,9l0,0c-5,0-9-4-9-9l0,0
	C273,523,277,519,282,519z"/>
<path id="Rounded_Rectangle_565_copy_2" class="st14" d="M248,519L248,519c5,0,9,4,9,9l0,0c0,5-4,9-9,9l0,0c-5,0-9-4-9-9l0,0
	C239,523,243,519,248,519z"/>
</svg>
