<?xml version="1.0" encoding="utf-8"?>
<!-- Generator: Adobe Illustrator 21.0.0, SVG Export Plug-In . SVG Version: 6.00 Build 0)  -->
<svg version="1.1" id="Слой_1" xmlns="http://www.w3.org/2000/svg" xmlns:xlink="http://www.w3.org/1999/xlink" x="0px" y="0px"
	 viewBox="0 0 89.5 85" style="enable-background:new 0 0 89.5 85;" xml:space="preserve">
<style type="text/css">
	.st0{fill:#0479EC;}
</style>
<path class="st0" d="M25.5,35.5H5.1c-1.1,0-2,0.9-2,2v43.4c0,1.1,0.9,2,2,2h20.5c1.1,0,2-0.9,2-2l0,0v-3.2h44
	c5.2,0,9.7-3.8,10.5-8.9l4.4-25.1c0.3-1.7,0.2-3.4-0.2-5c-1.5-5.4-6.4-9.2-12.1-9.2H55.9V12.9c0-5.6-4.6-10.2-10.2-10.2h-1.8
	c-2.8,0-5,2.2-5,5v11.9c-0.1,5.6-2.2,10.9-5.8,15.1l-5.6,4.4v-1.6C27.5,36.4,26.6,35.5,25.5,35.5L25.5,35.5z M23.5,78.9H7.1V39.5
	h16.5v39.4H23.5z M35.8,37.8c0.1-0.1,0.2-0.2,0.3-0.3c4.3-5,6.7-11.3,6.9-17.9V7.7c0-0.6,0.4-1,1-1h1.8c3.4,0,6.2,2.8,6.2,6.2v18.7
	c0,1.1,0.9,2,2,2h20.3c3.8,0,7.2,2.6,8.2,6.3c0.3,1.1,0.3,2.2,0.1,3.3l-4.4,25.1c-0.5,3.2-3.3,5.6-6.6,5.6h-44V44.2L35.8,37.8z"/>
</svg>
