<svg id="lines" xmlns="http://www.w3.org/2000/svg" width="1920" height="364" viewBox="0 0 1920 364">
  <defs>
    <style>
      .cls-1, .cls-2 {
        fill: #c1dbf3;
        fill-rule: evenodd;
      }

      .cls-2 {
        opacity: 0.5;
      }
    </style>
  </defs>
  <path class="cls-1" d="M0,97S290.187,294.6,707.937,314.92c32.2,1.567,80.642,3.163,98.811,1.368,147.732-20.875,226.292-63.967,316.942-78.416,90.01-14.346,140.06-17.854,224.26-18.652,49.59-.469,130.89-0.254,204.05,5.78,184.16,15.188,276.07,44.207,367.28,62.526,1.37,47.337-.27,125.529,2.34,124.915,0,0-532.64-128.2-699.91-130.412-113-1.493-236.867,20.619-373.008,43.775C484.369,381.961,107.471,257-.188,194.845,0.033,202.994-.059,185.821,0,163" transform="translate(0 -97)"/>
  <path id="Shape_1_copy" data-name="Shape 1 copy" class="cls-2" d="M0,196S466.383,361.993,779.669,326.946c147.731-20.875,226.291-63.967,316.941-78.415,90.02-14.347,140.06-17.855,224.26-18.652,49.59-.47,101.08,1.238,174.3,6.471C1757.53,255.1,1915.11,323.463,1920,395c2.5,36.565,3,66,3,66s-566.28-156.776-733.54-159.3c-110.72-1.674-231.264,11.578-367.837,34.768C357.782,416.541-2,257-2,257" transform="translate(0 -97)"/>
</svg>
