<?xml version="1.0" encoding="utf-8"?>
<!-- Generator: Adobe Illustrator 21.0.0, SVG Export Plug-In . SVG Version: 6.00 Build 0)  -->
<svg version="1.1" id="Слой_1" xmlns="http://www.w3.org/2000/svg" xmlns:xlink="http://www.w3.org/1999/xlink" x="0px" y="0px"
	 viewBox="0 0 468.4 512.1" style="enable-background:new 0 0 468.4 512.1;" xml:space="preserve">
<style type="text/css">
	.st0{fill:#949DBC;}
</style>
<title>Security</title>
<path class="st0" d="M468.2,64.2c0,0.8,0.1,1.3,0.1,1.9c-0.5,21-0.5,42.1-1.7,63.1c-1,17.2-3.1,34.4-5.3,51.6
	c-3.6,26.4-9.2,52.5-17,78c-8.9,30.2-20.9,59.3-35.8,87c-16.3,30.4-36.4,58.6-59.7,84c-24.5,26.5-52,49.5-83.4,67.4
	c-9.7,5.5-20,9.9-30.1,14.7c-1,0.3-2.1,0.2-3-0.2c-24.4-10-46.5-24-67.3-40.2c-27.1-21.2-51.2-46-71.8-73.6
	c-23.8-32-43.1-67.2-57.3-104.6c-11.3-29.7-19.9-60.4-25.6-91.7c-4.2-22.9-7.4-45.9-8.5-69.1c-1-22.2-1.3-44.5-1.9-66.7
	c0-0.4,0.1-0.8,0.2-1.7c3.8,0,7.6,0.1,11.3,0c9.8-0.3,19.6-0.3,29.3-1.1c18.3-1.4,36.3-5.8,53.2-13c17.3-7.3,33.5-16.9,50.1-25.5
	c15.5-8.1,31.5-15.2,48.6-19.4C211.1,0.5,230.1-1,249,0.6c26,2,50,10.6,73,22.5c13.8,7.2,27.5,14.7,41.4,21.7
	c18.6,9.3,38.2,15.6,58.9,17.5c14.4,1.3,28.9,1.3,43.3,1.9C466.5,64.2,467.3,64.2,468.2,64.2z M43.2,105.8c0,0.7,0,1.4,0,2.2
	c0.7,21.3,2.5,42.5,5.4,63.5c3.6,25.8,9.1,51.3,16.7,76.3c17.3,56.8,44.7,108.1,85,152.1c23.8,26,50.8,48.1,82,64.9
	c1.2,0.8,2.7,0.8,3.9,0c22.3-11.7,42.4-26.5,60.9-43.5c29.9-27.3,54.1-59.1,73.4-94.6c27.2-50.1,42.7-104,49.9-160.3
	c1.9-14.8,2.9-29.8,4.1-44.7c0.5-5.3,0.5-10.7,0.7-16.2c-1.3-0.2-2.4-0.3-3.4-0.4c-13.9-1.3-27.6-3.9-41-7.9
	C362.7,91.9,345.7,84,329,75.2c-14.4-7.7-28.6-15.9-43.7-22.3c-24.5-10.3-49.8-12.8-75.8-8.1c-15.8,2.8-30.3,9.3-44.4,16.6
	s-28,15-42.2,22.1c-17,8.5-35.1,14.7-53.8,18.3C60.7,103.4,52,104.5,43.2,105.8z"/>
<path class="st0" d="M346.2,155l30.1,30L212.9,348.5l-99.4-99.4l29.6-29.6l69.4,69.4L346.2,155z"/>
<text transform="matrix(1 0 0 1 -21.83 527.0331)" style="font-family:'Arial-BoldMT'; font-size:5px;">Created by i cons</text>
<text transform="matrix(1 0 0 1 -21.83 532.0331)" style="font-family:'Arial-BoldMT'; font-size:5px;">from the Noun Project</text>
</svg>
