<?xml version="1.0" encoding="utf-8"?>
<!-- Generator: Adobe Illustrator 21.0.0, SVG Export Plug-In . SVG Version: 6.00 Build 0)  -->
<svg version="1.1" id="Слой_1" xmlns="http://www.w3.org/2000/svg" xmlns:xlink="http://www.w3.org/1999/xlink" x="0px" y="0px"
	 viewBox="0 0 2911 541" style="enable-background:new 0 0 2911 541;" xml:space="preserve">
<style type="text/css">
	.st0{fill:#44A2FF;}
	.st1{fill:#3791EA;}
	.st2{fill:#55AAFD;}
	.st3{opacity:0.1;fill:#FFFFFF;enable-background:new    ;}
	.st4{opacity:0.3;fill:#A3D1FF;enable-background:new    ;}
	.st5{fill:none;stroke:#FFFFFF;stroke-width:4;}
	.st6{opacity:0.4;fill:#0479EC;enable-background:new    ;}
	.st7{fill:#0479EC;}
	.st8{opacity:0.5;fill:#0479EC;enable-background:new    ;}
	.st9{fill:#F5FAFD;stroke:#FFFFFF;stroke-width:6;}
	.st10{fill:none;stroke:#F5FAFD;stroke-width:4;}
	.st11{opacity:0.5;fill:none;stroke:#FFFFFF;stroke-width:4;enable-background:new    ;}
	.st12{opacity:0.5;fill:#FFFFFF;enable-background:new    ;}
	.st13{fill:#FFFFFF;stroke:#FFFFFF;stroke-width:4;}
	.st14{fill:#15599C;}
	.st15{fill:#2A8DEE;}
	.st16{opacity:0.6;fill:#C0DBF4;enable-background:new    ;}
</style>
<g id="illustration">
	<g>
		<rect x="749" y="84" class="st0" width="204" height="457"/>
		<rect x="773" y="322" class="st1" width="156" height="13"/>
		<rect id="Rectangle_9_copy" x="773" y="348" class="st1" width="156" height="13"/>
		<rect id="Rectangle_9_copy_2" x="773" y="374" class="st1" width="156" height="13"/>
		<rect id="Rectangle_9_copy_2-2" x="773" y="400" class="st1" width="156" height="13"/>
		<rect id="Rectangle_9_copy_3" x="773" y="429" class="st1" width="156" height="13"/>
		<rect id="Rectangle_9_copy_3-2" x="773" y="455" class="st1" width="156" height="13"/>
		<rect id="Rectangle_9_copy_3-3" x="773" y="481" class="st1" width="156" height="13"/>
		<rect id="Rectangle_9_copy_3-4" x="773" y="507" class="st1" width="156" height="13"/>
		<rect id="Rectangle_9_copy_4" x="773" y="111" class="st1" width="156" height="13"/>
		<rect id="Rectangle_9_copy_4-2" x="773" y="137" class="st1" width="156" height="13"/>
		<rect id="Rectangle_9_copy_4-3" x="773" y="163" class="st1" width="156" height="13"/>
		<rect id="Rectangle_9_copy_4-4" x="773" y="189" class="st1" width="156" height="13"/>
		<rect id="Rectangle_9_copy_4-5" x="773" y="218" class="st1" width="156" height="13"/>
		<rect id="Rectangle_9_copy_4-6" x="773" y="244" class="st1" width="156" height="13"/>
		<rect id="Rectangle_9_copy_4-7" x="773" y="270" class="st1" width="156" height="13"/>
		<rect id="Rectangle_9_copy_4-8" x="773" y="296" class="st1" width="156" height="13"/>
		<rect id="Rectangle_8_copy_5" x="1679" y="164" class="st2" width="204" height="377"/>
		<rect id="Rectangle_8_copy_6" x="1881" y="49" class="st0" width="164" height="492"/>
		<rect x="1971" y="247" class="st1" width="160" height="28"/>
		<rect id="Rectangle_16_copy" x="1971" y="309" class="st1" width="160" height="28"/>
		<rect id="Rectangle_16_copy_2" x="1971" y="378" class="st1" width="160" height="28"/>
		<rect id="Rectangle_16_copy_3" x="1971" y="443" class="st1" width="160" height="28"/>
		<rect id="Rectangle_8_copy_2" x="1155" y="132" class="st0" width="204" height="409"/>
		<rect x="1180" y="158" class="st1" width="150" height="363"/>
		<rect id="Rectangle_8_copy_3" x="1359" y="289" class="st0" width="307" height="252"/>
		<rect x="1421" y="318" class="st1" width="45" height="45"/>
		<rect id="Rectangle_14_copy" x="1421" y="384" class="st1" width="45" height="45"/>
		<rect id="Rectangle_14_copy_2" x="1421" y="454" class="st1" width="45" height="45"/>
		<rect id="Rectangle_8_copy_4" x="1534" class="st0" width="145" height="541"/>
		<rect id="Rectangle_8_copy" x="951" y="185" class="st1" width="204" height="356"/>
		<rect id="Rectangle_8_copy_7" x="2045" y="185" class="st1" width="204" height="356"/>
		<path id="Polygon_1" class="st3" d="M1605,458l24,42h-48L1605,458z"/>
		<path id="Polygon_1_copy" class="st3" d="M1605,321l24,42h-48L1605,321z"/>
		<path id="Polygon_1_copy_2" class="st3" d="M1605,189l24,42h-48L1605,189z"/>
		<path id="Polygon_1_copy_3" class="st3" d="M1605,59l24,42h-48L1605,59z"/>
	</g>
	<rect x="978" y="215" class="st4" width="32" height="32"/>
	<rect id="Rectangle_10_copy" x="1034" y="276" class="st4" width="32" height="32"/>
	<rect id="Rectangle_10_copy_2" x="1093" y="346" class="st4" width="32" height="32"/>
	<rect id="Rectangle_10_copy_3" x="978" y="467" class="st4" width="32" height="32"/>
	<rect id="Rectangle_10_copy_3-2" x="1037" y="411" class="st4" width="32" height="32"/>
	<path class="st5" d="M2115,246l-193-143h-299v31c0,0,2.4,32-32,32h-383c0,0-23-3.9-23,15v76l-61,46H900"/>
	<rect x="1251" y="164" class="st6" width="69" height="4"/>
	<rect id="Rectangle_11_copy" x="1444" y="164" class="st6" width="69" height="4"/>
	<rect id="Rectangle_11_copy_2" x="1944" y="355" class="st7" width="69" height="4"/>
	<path id="Rectangle_11_copy_3" class="st8" d="M1980.9,144.9l55.5,41l-2.4,3.2l-55.5-41L1980.9,144.9z"/>
	<path class="st5" d="M1411,168l122,122v116"/>
	<circle id="Ellipse_1_copy_10" class="st9" cx="1624" cy="106" r="26.1"/>
	<path class="st10" d="M815,151l81,79v74h228L971,151H813"/>
	<path class="st11" d="M1533,414l-108,108h-306L899,302"/>
	<path class="st11" d="M1891,357h176l47-47v-64"/>
	<rect x="1249" y="520" class="st7" width="52" height="4"/>
	<rect id="Rectangle_7_copy" x="1318" y="164" class="st12" width="52" height="4"/>
	<circle id="Ellipse_1_copy_9" class="st13" cx="1185.5" cy="210.5" r="25.5"/>
	<circle class="st14" cx="1185" cy="210" r="15"/>
	<path class="st5" d="M1205,225l98,98h76l46,46v153"/>
	<circle id="Ellipse_1_copy" class="st14" cx="900" cy="304" r="15"/>
	<circle id="Ellipse_1_copy_2" class="st14" cx="1888" cy="356" r="15"/>
	<circle id="Ellipse_1_copy_3" class="st14" cx="2115" cy="242" r="15"/>
	<circle id="Ellipse_1_copy_4" class="st14" cx="1624" cy="106" r="15"/>
	<circle id="Ellipse_1_copy_11" class="st9" cx="1533" cy="413" r="26.1"/>
	<circle id="Ellipse_1_copy_11-2" class="st14" cx="1533" cy="413" r="15"/>
	<circle id="Ellipse_1_copy_5" class="st14" cx="1411" cy="167" r="10"/>
	<circle id="Ellipse_1_copy_12" class="st14" cx="1119" cy="520" r="10"/>
	<circle id="Ellipse_1_copy_13" class="st14" cx="1425" cy="520" r="10"/>
	<circle id="Ellipse_1_copy_6" class="st14" cx="1124" cy="303" r="10"/>
	<circle id="Ellipse_1_copy_8" class="st14" cx="814" cy="150" r="10"/>
</g>
<g id="lines">
	<path id="Rounded_Rectangle_9" class="st15" d="M88.5,148h315c5.8,0,10.5,4.7,10.5,10.5l0,0c0,5.8-4.7,10.5-10.5,10.5h-315
		c-5.8,0-10.5-4.7-10.5-10.5l0,0C78,152.7,82.7,148,88.5,148z"/>
	<path id="Rounded_Rectangle_9_copy" class="st15" d="M-220.5,193h528c5.8,0,10.5,4.7,10.5,10.5l0,0c0,5.8-4.7,10.5-10.5,10.5h-528
		c-5.8,0-10.5-4.7-10.5-10.5l0,0C-231,197.7-226.3,193-220.5,193z"/>
	<path id="Rounded_Rectangle_9_copy_5" class="st15" d="M508.5,193h195c5.8,0,10.5,4.7,10.5,10.5l0,0c0,5.8-4.7,10.5-10.5,10.5h-195
		c-5.8,0-10.5-4.7-10.5-10.5l0,0C498,197.7,502.7,193,508.5,193z"/>
	<path id="Rounded_Rectangle_9_copy_2" class="st15" d="M38.5,237h528c5.8,0,10.5,4.7,10.5,10.5l0,0c0,5.8-4.7,10.5-10.5,10.5h-528
		c-5.8,0-10.5-4.7-10.5-10.5l0,0C28,241.7,32.7,237,38.5,237z"/>
	<path id="Rounded_Rectangle_9_copy_8" class="st15" d="M2567.5,237h528c5.8,0,10.5,4.7,10.5,10.5l0,0c0,5.8-4.7,10.5-10.5,10.5
		h-528c-5.8,0-10.5-4.7-10.5-10.5l0,0C2557,241.7,2561.7,237,2567.5,237z"/>
	<path id="Rounded_Rectangle_9_copy_6" class="st15" d="M-267.5,282h528c5.8,0,10.5,4.7,10.5,10.5l0,0c0,5.8-4.7,10.5-10.5,10.5
		h-528c-5.8,0-10.5-4.7-10.5-10.5l0,0C-278,286.7-273.3,282-267.5,282z"/>
	<path id="Rounded_Rectangle_9_copy_3" class="st15" d="M-538.5,237h528c5.8,0,10.5,4.7,10.5,10.5l0,0c0,5.8-4.7,10.5-10.5,10.5
		h-528c-5.8,0-10.5-4.7-10.5-10.5l0,0C-549,241.7-544.3,237-538.5,237z"/>
	<path id="Rounded_Rectangle_9_copy_4" class="st15" d="M357.5,194h97c5.8,0,10.5,4.7,10.5,10.5l0,0c0,5.8-4.7,10.5-10.5,10.5h-97
		c-5.8,0-10.5-4.7-10.5-10.5l0,0C347,198.7,351.7,194,357.5,194z"/>
	<path id="Rounded_Rectangle_9_copy_9" class="st15" d="M2567.5,150h97c5.8,0,10.5,4.7,10.5,10.5l0,0c0,5.8-4.7,10.5-10.5,10.5h-97
		c-5.8,0-10.5-4.7-10.5-10.5l0,0C2557,154.7,2561.7,150,2567.5,150z"/>
	<path id="Rounded_Rectangle_9_copy_7" class="st15" d="M2626.5,193h528c5.8,0,10.5,4.7,10.5,10.5l0,0c0,5.8-4.7,10.5-10.5,10.5
		h-528c-5.8,0-10.5-4.7-10.5-10.5l0,0C2616,197.7,2620.7,193,2626.5,193z"/>
	<path id="Rounded_Rectangle_9_copy_10" class="st15" d="M2719.5,150h528c5.8,0,10.5,4.7,10.5,10.5l0,0c0,5.8-4.7,10.5-10.5,10.5
		h-528c-5.8,0-10.5-4.7-10.5-10.5l0,0C2709,154.7,2713.7,150,2719.5,150z"/>
	<path id="Rounded_Rectangle_9_copy_7-2" class="st15" d="M3157.5,193h195c5.8,0,10.5,4.7,10.5,10.5l0,0c0,5.8-4.7,10.5-10.5,10.5
		h-195c-5.8,0-10.5-4.7-10.5-10.5l0,0C3147,197.7,3151.7,193,3157.5,193z"/>
	<path id="Rounded_Rectangle_9_copy_7-3" class="st15" d="M3006.5,194h97c5.8,0,10.5,4.7,10.5,10.5l0,0c0,5.8-4.7,10.5-10.5,10.5
		h-97c-5.8,0-10.5-4.7-10.5-10.5l0,0C2996,198.7,3000.7,194,3006.5,194z"/>
</g>
<path id="cPanel_Control_Panel" class="st16" d="M429.2,429.1c-0.7-0.6-1.7-0.9-2.6-0.8c-0.8,0-1.6,0.1-2.3,0.5
	c-0.6,0.3-1.1,0.8-1.5,1.3c-0.4,0.6-0.6,1.2-0.8,1.9c-0.2,0.7-0.2,1.5-0.2,2.3c0,0.7,0.1,1.4,0.3,2.1c0.2,0.6,0.4,1.3,0.8,1.8
	c0.4,0.5,0.8,1,1.4,1.3c0.6,0.3,1.4,0.5,2.1,0.5c1.1,0.1,2.1-0.3,2.9-1c0.8-0.7,1.2-1.7,1.3-2.8h2.6c-0.2,1.7-0.9,3.3-2.2,4.4
	c-1.3,1.1-3,1.7-4.7,1.6c-1.1,0-2.1-0.2-3.1-0.6c-0.9-0.4-1.7-0.9-2.3-1.6c-0.6-0.7-1.1-1.6-1.4-2.5c-0.3-1-0.5-2.1-0.5-3.2
	c0-1.1,0.1-2.2,0.4-3.3c0.3-1,0.7-1.9,1.4-2.6c0.6-0.8,1.4-1.4,2.3-1.8c1-0.4,2.1-0.7,3.2-0.6c0.8,0,1.7,0.1,2.5,0.3
	c0.7,0.2,1.4,0.5,2,1c0.6,0.4,1.1,1,1.5,1.7c0.4,0.7,0.6,1.6,0.7,2.4h-2.6C430.3,430.5,429.9,429.7,429.2,429.1z M444.9,430.7
	c1.3,0.1,2.5-0.2,3.6-1c1.5-1.7,1.5-4.2,0-5.9c-1-0.8-2.3-1.1-3.6-1h-5.6v7.9H444.9z M445.8,420.5c1.8-0.1,3.6,0.5,4.9,1.7
	c2.2,2.7,2.2,6.6,0,9.3c-1.3,1.2-3.1,1.8-4.9,1.7h-6.5v8.8h-2.8v-21.4H445.8z M469.2,439.9c-0.3,0.1-0.5,0.1-0.8,0.1
	c-0.3,0.1-0.6-0.1-0.7-0.4c-0.1-0.4-0.1-0.9-0.1-1.3v-8c0-0.8-0.1-1.5-0.5-2.2c-0.3-0.5-0.8-1-1.3-1.3c-0.6-0.3-1.2-0.5-1.9-0.6
	c-0.7-0.1-1.4-0.2-2.1-0.2c-0.8,0-1.7,0.1-2.5,0.3c-0.7,0.2-1.4,0.5-2.1,0.9c-0.6,0.4-1.1,1-1.4,1.6c-0.4,0.8-0.6,1.6-0.6,2.4h2.6
	c-0.1-0.9,0.4-1.8,1.2-2.3c0.8-0.4,1.8-0.6,2.7-0.6c0.4,0,0.8,0,1.2,0.1c0.4,0.1,0.8,0.2,1.1,0.4c0.3,0.2,0.6,0.5,0.8,0.8
	c0.2,0.4,0.3,0.9,0.3,1.3c0,0.4-0.1,0.8-0.4,1.1c-0.3,0.3-0.7,0.5-1.1,0.6c-0.5,0.1-1.1,0.2-1.7,0.3c-0.6,0.1-1.3,0.2-2,0.3
	c-0.7,0.1-1.3,0.3-1.9,0.4c-0.6,0.2-1.2,0.4-1.7,0.8c-0.5,0.4-0.9,0.8-1.2,1.4c-0.3,0.7-0.5,1.4-0.4,2.2c0,0.7,0.1,1.4,0.4,2
	c0.2,0.5,0.6,1,1.1,1.3c0.5,0.4,1,0.6,1.6,0.8c1.7,0.4,3.4,0.3,5-0.3c1-0.4,1.8-1,2.4-1.8c-0.1,0.7,0.1,1.3,0.6,1.8
	c0.4,0.4,1,0.6,1.6,0.6c0.6,0,1.3-0.1,1.8-0.4L469.2,439.9L469.2,439.9z M465.1,436.5c0,0.4-0.1,0.8-0.3,1.2
	c-0.2,0.4-0.5,0.8-0.8,1.1c-0.4,0.4-0.9,0.7-1.5,0.9c-0.7,0.2-1.4,0.4-2.2,0.3c-0.4,0-0.8,0-1.1-0.1c-0.3-0.1-0.7-0.2-0.9-0.4
	c-0.3-0.2-0.5-0.4-0.7-0.7c-0.2-0.3-0.3-0.7-0.3-1.1c0-0.5,0.1-1.1,0.4-1.5c0.3-0.4,0.7-0.7,1.1-0.8c0.5-0.2,1-0.4,1.6-0.4
	c0.6-0.1,1.2-0.2,1.7-0.2s1.1-0.2,1.6-0.3c0.5-0.1,0.9-0.3,1.3-0.5L465.1,436.5L465.1,436.5z M474,426.4v2.5h0.1c1-1.8,3-2.9,5-2.8
	c0.9,0,1.7,0.1,2.6,0.4c0.6,0.2,1.2,0.7,1.7,1.2c0.4,0.5,0.7,1.1,0.9,1.8c0.2,0.8,0.3,1.5,0.3,2.3v10.2h-2.6v-10.5
	c0-0.8-0.3-1.7-0.8-2.3c-0.6-0.6-1.5-0.9-2.3-0.8c-0.7,0-1.4,0.1-2,0.4c-0.5,0.2-1,0.6-1.4,1c-0.4,0.5-0.7,1-0.8,1.5
	c-0.2,0.6-0.3,1.3-0.3,1.9v8.8h-2.6v-15.5L474,426.4L474,426.4z M498.6,431c-1-2.2-3.6-3.3-5.8-2.3c-0.5,0.2-1,0.5-1.4,0.9
	c-0.4,0.4-0.7,0.9-0.9,1.4c-0.2,0.5-0.4,1.1-0.4,1.7h8.9C499,432.1,498.8,431.5,498.6,431L498.6,431z M499.2,440.9
	c-1.3,0.9-2.8,1.4-4.4,1.3c-1.1,0-2.2-0.2-3.2-0.6c-0.9-0.4-1.7-1-2.3-1.7c-0.6-0.8-1.1-1.6-1.4-2.6c-0.3-1.1-0.5-2.2-0.5-3.3
	c0-1.1,0.2-2.2,0.5-3.2c0.3-0.9,0.9-1.8,1.5-2.6c0.6-0.7,1.4-1.3,2.3-1.7c0.9-0.4,1.9-0.6,2.9-0.6c1.2,0,2.4,0.2,3.4,0.8
	c0.9,0.5,1.6,1.3,2.2,2.2c0.6,0.9,0.9,1.9,1.1,2.9c0.2,1,0.3,2,0.3,3h-11.6c0,0.7,0.1,1.3,0.2,1.9c0.2,0.6,0.5,1.1,0.9,1.6
	c0.4,0.5,0.9,0.9,1.5,1.1c0.7,0.3,1.4,0.4,2.2,0.4c0.9,0,1.9-0.2,2.7-0.8c0.7-0.6,1.2-1.4,1.4-2.3h2.5
	C501.3,438.5,500.4,439.9,499.2,440.9L499.2,440.9z M507.1,420.5v21.4h-2.6v-21.4H507.1z M532.7,423.5c-1.1-0.8-2.5-1.2-3.9-1.1
	c-1.1,0-2.3,0.2-3.3,0.7c-0.9,0.5-1.7,1.1-2.3,1.9c-0.6,0.8-1,1.8-1.3,2.8c-0.3,1.1-0.4,2.1-0.4,3.2c0,1.2,0.1,2.3,0.4,3.5
	c0.3,1,0.7,2,1.3,2.8c0.6,0.8,1.4,1.5,2.3,1.9c1,0.5,2.2,0.8,3.3,0.7c0.9,0,1.7-0.1,2.5-0.5c0.7-0.3,1.4-0.7,1.9-1.3
	c0.5-0.6,1-1.2,1.2-2c0.3-0.8,0.5-1.6,0.5-2.5h2.8c-0.1,2.4-1.1,4.6-2.8,6.3c-1.8,1.6-4.1,2.4-6.5,2.3c-1.5,0-3-0.3-4.3-0.9
	c-1.2-0.5-2.3-1.3-3.1-2.3c-0.8-1-1.5-2.2-1.8-3.5c-0.4-1.4-0.6-2.9-0.6-4.4c0-1.5,0.2-3,0.7-4.4c0.4-1.3,1.1-2.5,1.9-3.6
	c0.9-1,2-1.9,3.2-2.4c1.4-0.6,2.9-0.9,4.4-0.9c1.1,0,2.1,0.1,3.2,0.4c1,0.3,1.9,0.7,2.7,1.3c0.8,0.6,1.5,1.3,1.9,2.2
	c0.5,0.9,0.9,2,1,3h-2.8C534.6,425.6,533.9,424.3,532.7,423.5L532.7,423.5z M543.3,436.7c0.2,0.7,0.6,1.3,1,1.8
	c0.4,0.5,1,0.9,1.6,1.1c0.6,0.3,1.2,0.4,1.9,0.4c0.6,0,1.3-0.1,1.9-0.4c0.6-0.3,1.1-0.6,1.5-1.1c0.5-0.5,0.8-1.2,1-1.8
	c0.5-1.6,0.5-3.4,0-5c-0.2-0.7-0.6-1.3-1-1.8c-0.4-0.5-0.9-0.9-1.5-1.1c-0.6-0.3-1.2-0.4-1.9-0.4c-0.6,0-1.3,0.1-1.9,0.4
	c-0.6,0.3-1.1,0.7-1.6,1.1c-0.5,0.5-0.8,1.2-1,1.8C542.7,433.3,542.7,435,543.3,436.7L543.3,436.7z M540.7,431
	c0.3-0.9,0.8-1.8,1.4-2.6c0.7-0.7,1.5-1.3,2.4-1.7c2.1-0.8,4.4-0.8,6.5,0c0.9,0.4,1.7,1,2.3,1.7c0.7,0.8,1.1,1.6,1.4,2.6
	c0.3,1,0.5,2.1,0.5,3.2c0,1.1-0.2,2.2-0.5,3.2c-0.3,0.9-0.8,1.8-1.4,2.6c-0.6,0.7-1.4,1.3-2.3,1.7c-2.1,0.8-4.4,0.8-6.5,0
	c-0.9-0.4-1.7-1-2.4-1.7c-0.6-0.7-1.1-1.6-1.4-2.6c-0.3-1-0.5-2.1-0.5-3.2C540.2,433.1,540.3,432,540.7,431L540.7,431z M560.6,426.4
	v2.5h0.1c1-1.8,3-2.9,5-2.8c0.9,0,1.7,0.1,2.6,0.4c0.6,0.2,1.2,0.7,1.7,1.2c0.4,0.5,0.7,1.1,0.9,1.8c0.2,0.8,0.3,1.5,0.3,2.3v10.2
	h-2.6v-10.5c0-0.8-0.3-1.7-0.8-2.3c-0.6-0.6-1.5-0.9-2.3-0.8c-0.7,0-1.4,0.1-2,0.4c-0.5,0.2-1,0.6-1.4,1c-0.4,0.5-0.7,1-0.8,1.5
	c-0.2,0.6-0.3,1.3-0.3,1.9v8.8h-2.6v-15.5L560.6,426.4L560.6,426.4z M581.5,426.4v2.3h-3.1v9.6c0,0.2,0,0.5,0.1,0.7
	c0,0.2,0.1,0.3,0.3,0.4c0.2,0.1,0.4,0.2,0.6,0.2c0.3,0,0.6,0.1,1,0.1h1.2v2.3h-1.9c-0.6,0-1.1,0-1.7-0.1c-0.4-0.1-0.8-0.2-1.1-0.5
	c-0.3-0.3-0.5-0.6-0.7-1c-0.2-0.6-0.2-1.2-0.2-1.7v-9.9h-2.6v-2.3h2.6v-4.7h2.6v4.7H581.5L581.5,426.4z M586.7,426.4v3.3h0.1
	c0.5-1.1,1.3-2.1,2.3-2.8c1-0.6,2.2-0.9,3.4-0.8v2.7c-0.9,0-1.8,0.1-2.6,0.4c-0.7,0.3-1.3,0.7-1.7,1.2c-0.5,0.6-0.8,1.2-1,2
	c-0.2,0.9-0.3,1.8-0.3,2.7v6.9h-2.6v-15.5H586.7L586.7,426.4z M596.1,436.7c0.2,0.7,0.6,1.3,1,1.8c0.4,0.5,1,0.9,1.6,1.1
	c0.6,0.3,1.2,0.4,1.9,0.4c0.6,0,1.3-0.1,1.9-0.4c0.6-0.3,1.1-0.6,1.5-1.1c0.5-0.5,0.8-1.2,1-1.8c0.5-1.6,0.5-3.4,0-5
	c-0.2-0.7-0.6-1.3-1-1.8c-0.4-0.5-0.9-0.9-1.5-1.1c-0.6-0.3-1.2-0.4-1.9-0.4c-0.6,0-1.3,0.1-1.9,0.4c-0.6,0.3-1.1,0.7-1.6,1.1
	c-0.5,0.5-0.8,1.2-1,1.8C595.6,433.3,595.6,435,596.1,436.7L596.1,436.7z M593.5,431c0.3-0.9,0.8-1.8,1.4-2.6
	c0.7-0.7,1.5-1.3,2.4-1.7c2.1-0.8,4.4-0.8,6.5,0c0.9,0.4,1.7,1,2.3,1.7c0.7,0.8,1.1,1.6,1.4,2.6c0.3,1,0.5,2.1,0.5,3.2
	c0,1.1-0.2,2.2-0.5,3.2c-0.3,0.9-0.8,1.8-1.4,2.6c-0.6,0.7-1.4,1.3-2.3,1.7c-2.1,0.8-4.4,0.8-6.5,0c-0.9-0.4-1.7-1-2.4-1.7
	c-0.6-0.7-1.1-1.6-1.4-2.6c-0.3-1-0.5-2.1-0.5-3.2C593,433.1,593.1,432,593.5,431L593.5,431z M613.7,420.5v21.4h-2.6v-21.4H613.7z
	 M634.9,430.7c1.3,0.1,2.5-0.2,3.6-1c1.5-1.7,1.5-4.2,0-5.9c-1-0.8-2.3-1.1-3.6-1h-5.6v7.9H634.9z M635.8,420.5
	c1.8-0.1,3.6,0.5,4.9,1.7c2.2,2.7,2.2,6.6,0,9.3c-1.3,1.2-3.1,1.8-4.9,1.7h-6.5v8.8h-2.8v-21.4H635.8z M659.2,439.9
	c-0.3,0.1-0.5,0.1-0.8,0.1c-0.3,0.1-0.6-0.1-0.7-0.4c-0.1-0.4-0.1-0.9-0.1-1.3v-8c0-0.8-0.1-1.5-0.5-2.2c-0.3-0.5-0.8-1-1.3-1.3
	c-0.6-0.3-1.2-0.5-1.9-0.6c-0.7-0.1-1.4-0.2-2.1-0.2c-0.8,0-1.7,0.1-2.5,0.3c-0.7,0.2-1.4,0.5-2.1,0.9c-0.6,0.4-1.1,1-1.4,1.6
	c-0.4,0.8-0.6,1.6-0.6,2.4h2.6c-0.1-0.9,0.4-1.8,1.2-2.3c0.8-0.4,1.8-0.6,2.7-0.6c0.4,0,0.8,0,1.2,0.1c0.4,0.1,0.8,0.2,1.1,0.4
	c0.3,0.2,0.6,0.5,0.8,0.8c0.2,0.4,0.3,0.9,0.3,1.3c0,0.4-0.1,0.8-0.4,1.1c-0.3,0.3-0.7,0.5-1.1,0.6c-0.5,0.1-1.1,0.2-1.7,0.3
	c-0.6,0.1-1.3,0.2-2,0.3c-0.7,0.1-1.3,0.3-1.9,0.4c-0.6,0.2-1.2,0.4-1.7,0.8c-0.5,0.4-0.9,0.8-1.2,1.4c-0.3,0.7-0.5,1.4-0.4,2.2
	c0,0.7,0.1,1.4,0.4,2c0.2,0.5,0.6,1,1.1,1.3c0.5,0.4,1,0.6,1.6,0.8c1.7,0.4,3.4,0.3,5-0.3c1-0.4,1.8-1,2.4-1.8
	c-0.1,0.7,0.2,1.3,0.6,1.8c0.4,0.4,1,0.6,1.6,0.6c0.6,0,1.3-0.1,1.8-0.4V439.9L659.2,439.9z M655.1,436.5c0,0.4-0.1,0.8-0.3,1.2
	c-0.2,0.4-0.5,0.8-0.8,1.1c-0.4,0.4-0.9,0.7-1.5,0.9c-0.7,0.2-1.4,0.4-2.2,0.3c-0.4,0-0.8,0-1.1-0.1c-0.3-0.1-0.7-0.2-0.9-0.4
	c-0.3-0.2-0.5-0.4-0.7-0.7c-0.2-0.3-0.3-0.7-0.3-1.1c0-0.5,0.1-1.1,0.4-1.5c0.3-0.4,0.7-0.7,1.1-0.8c0.5-0.2,1-0.4,1.6-0.4
	c0.6-0.1,1.2-0.2,1.7-0.2s1.1-0.2,1.6-0.3c0.5-0.1,0.9-0.3,1.3-0.5V436.5L655.1,436.5z M664,426.4v2.5h0.1c1-1.8,3-2.9,5-2.8
	c0.9,0,1.7,0.1,2.6,0.4c0.6,0.2,1.2,0.7,1.7,1.2c0.4,0.5,0.7,1.1,0.9,1.8c0.2,0.8,0.3,1.5,0.3,2.3v10.2h-2.6v-10.5
	c0-0.8-0.3-1.7-0.8-2.3c-0.6-0.6-1.5-0.9-2.3-0.8c-0.7,0-1.4,0.1-2,0.4c-0.5,0.2-1,0.6-1.4,1c-0.4,0.5-0.7,1-0.8,1.5
	c-0.2,0.6-0.3,1.3-0.3,1.9v8.8h-2.6v-15.5L664,426.4L664,426.4z M688.6,431c-1-2.2-3.6-3.3-5.8-2.3c-0.5,0.2-1,0.5-1.4,0.9
	c-0.4,0.4-0.7,0.9-0.9,1.4c-0.2,0.5-0.4,1.1-0.4,1.7h8.9C689,432.1,688.9,431.5,688.6,431L688.6,431z M689.3,440.9
	c-1.3,0.9-2.8,1.4-4.4,1.3c-1.1,0-2.2-0.2-3.2-0.6c-0.9-0.4-1.7-1-2.3-1.7c-0.6-0.8-1.1-1.6-1.4-2.6c-0.3-1.1-0.5-2.2-0.5-3.3
	c0-1.1,0.2-2.2,0.5-3.2c0.3-0.9,0.9-1.8,1.5-2.6c0.6-0.7,1.4-1.3,2.3-1.7c0.9-0.4,1.9-0.6,2.9-0.6c1.2,0,2.4,0.2,3.4,0.8
	c0.9,0.5,1.6,1.3,2.2,2.2c0.6,0.9,0.9,1.9,1.1,2.9c0.2,1,0.3,2,0.3,3h-11.6c0,0.7,0.1,1.3,0.2,1.9c0.2,0.6,0.5,1.1,0.9,1.6
	c0.4,0.5,0.9,0.9,1.5,1.1c0.7,0.3,1.4,0.4,2.2,0.4c0.9,0,1.9-0.2,2.7-0.8c0.7-0.6,1.2-1.4,1.4-2.3h2.5
	C691.3,438.5,690.5,439.9,689.3,440.9L689.3,440.9z M697.1,420.5v21.4h-2.6v-21.4H697.1z"/>
</svg>
