<?xml version="1.0" encoding="utf-8"?>
<!-- Generator: Adobe Illustrator 21.0.0, SVG Export Plug-In . SVG Version: 6.00 Build 0)  -->
<svg version="1.1" id="_1_main_block_illustration" xmlns="http://www.w3.org/2000/svg" xmlns:xlink="http://www.w3.org/1999/xlink"
	 x="0px" y="0px" viewBox="0 0 1440 649.1" style="enable-background:new 0 0 1440 649.1;" xml:space="preserve">
<style type="text/css">
	.st0{opacity:0.3;fill:#DFEDF9;enable-background:new    ;}
	.st1{display:none;fill:#F5FAFD;}
	.st2{fill:#FFFFFF;}
	.st3{opacity:0.2;fill:#C7E3FF;enable-background:new    ;}
	.st4{opacity:0.2;fill:#A1D0FF;enable-background:new    ;}
	.st5{fill:#E7F3FE;}
	.st6{display:none;fill:#E7F3FE;}
	.st7{fill:#44A2FF;}
	.st8{fill:#3791EA;}
	.st9{fill:#55AAFD;}
	.st10{opacity:0.1;fill:#FFFFFF;enable-background:new    ;}
	.st11{opacity:0.3;fill:#A3D1FF;enable-background:new    ;}
	.st12{fill:none;stroke:#FFFFFF;stroke-width:2;}
	.st13{opacity:0.4;fill:#0479EC;enable-background:new    ;}
	.st14{fill:#0479EC;}
	.st15{opacity:0.5;fill:#0479EC;enable-background:new    ;}
	.st16{fill:#F5FAFD;stroke:#FFFFFF;stroke-width:3;}
	.st17{fill:none;stroke:#F5FAFD;stroke-width:2;}
	.st18{opacity:0.5;fill:none;stroke:#FFFFFF;stroke-width:2;enable-background:new    ;}
	.st19{opacity:0.5;fill:#FFFFFF;enable-background:new    ;}
	.st20{fill:#FFFFFF;stroke:#FFFFFF;stroke-width:2;}
	.st21{fill:#15599C;}
	.st22{fill:none;}
</style>
<g id="bg">
	<path class="st0" d="M-19-6.5L1446-5v632.6c0,0-193.7-114.8-442.5-84c-184.1,22.8-405.4,90-585,90C160.6,633.6-19,578.1-19,578.1
		V-6.5z"/>
	<path id="Rectangle_5_copy" class="st1" d="M-152.5-91H1446v740.6H-152.5V-91z"/>
	<path class="st2" d="M1521-17.5H-20.5v521.1c1.1,1.7,1.1,4,0.1,5.7c0,0.1,0,0.2,0,0.3c0,0.3,0.1,0.6,0.1,1c0,0.2,0.1,0.4,0.1,0.6v0
		c0,0.2,0,0.3,0,0.5c0,0.1,0,0.2,0,0.3v0.2c0,0.2,0,0.4,0,0.5c0,0.1,0,0.2,0,0.4v0.2c0,0,0,0,0,0.1c0,0.4,0,0.8,0,1.2
		c0,0.2,0.1,0.3,0.1,0.5v0c0,0.4-0.1,0.9-0.2,1.3v12.4c0,0.1,0,0.3,0,0.4c0,0.3,0,0.6,0,0.9v21.2c0,0.1,0,0.2,0,0.3v0
		c0,0.1,0,0.2,0,0.3V572c0.1,0.5,0.2,1.1,0.2,1.7c0.2,0.7,0.2,1.4,0.1,2.2c0.1,0.8,0,1.6-0.2,2.4c0.2,0.7,0.3,1.6,0.2,2.3
		c0.1,0.4,0.1,0.8,0.1,1.2c0.7,1.6,0.6,3.7-0.4,5.2v61.2H1521V517.7c-0.8-3-0.6-6.3,0-9.4V-17.5z"/>
	<circle id="Ellipse_2_copy" class="st3" cx="706.5" cy="691.1" r="430"/>
	<path class="st4" d="M701.4,360.2c177.7,0,321.7,144.1,321.7,321.8S879,1003.8,701.4,1003.8S379.7,859.7,379.7,682
		S523.8,360.2,701.4,360.2z"/>
</g>
<g id="background_lines">
	<path class="st5" d="M123.7,505.6H-19.7c0.2,1.2-0.1,2.5-0.7,3.6c0,0.1,0,0.3,0,0.4c0,0.3,0.1,0.7,0.1,1c0,0.2,0.1,0.3,0.1,0.5v0
		c0,0.2,0,0.3,0,0.5c0,0.1,0,0.2,0,0.3v0.2c0,0.2,0,0.3,0,0.5c0,0.1,0,0.3,0,0.4v0.2c0,0,0,0,0,0.1c0,0.4,0,0.8,0,1.2
		c0,0.2,0.1,0.3,0.1,0.5v0c0,0.4-0.1,0.8-0.2,1.2h144.2c2.9,0,5.3-2.4,5.3-5.3C129,508,126.6,505.6,123.7,505.6z"/>
	<path class="st5" d="M75.7,528.1h-96.3c0,0.2,0.1,0.4,0.1,0.6v0c0,0,0,0.1,0,0.1v0c0,0.2,0,0.3,0,0.5v0c0,0,0,0,0,0.1c0,0,0,0,0,0
		c0,0.3,0,0.7-0.1,1c0,0,0,0.1,0,0.1c0,0.3,0,0.6-0.1,1c0,0.3,0,0.5,0,0.8c0,0.1,0,0.2,0,0.3c0,0.1,0,0.3,0,0.4c0,0,0,0,0,0.1
		c0.1,0.6,0.1,1.2,0,1.9c0,0.3,0,0.6,0,0.8c0,0.4,0,0.8,0,1.2c0,0.2,0,0.4,0,0.5c0,0.3,0.1,0.5,0.1,0.8c0,0.2,0,0.4,0,0.6h96.3
		c2.9,0,5.3-2.4,5.3-5.3C81,530.5,78.6,528.1,75.7,528.1z"/>
	<path id="Rounded_Rectangle_9_copy_5" class="st5" d="M176.3,528.1h97.5c2.9,0,5.3,2.4,5.3,5.3l0,0c0,2.9-2.4,5.3-5.3,5.3h-97.5
		c-2.9,0-5.3-2.4-5.3-5.3l0,0C171,530.4,173.4,528.1,176.3,528.1z"/>
	<path class="st5" d="M205.2,550.1H-20.5c0,0.3,0,0.5,0,0.8c0,0.2,0.1,0.4,0.1,0.6v0c0,0.4-0.1,0.7-0.1,1.1c0,0.4,0,0.9-0.1,1.3
		c0,0,0,0.1,0,0.1c0,0.1,0,0.2,0,0.2c0.1,0.4,0.1,0.9,0,1.3c0.1,0.6,0.1,1.3,0,1.9c0.1,0.4,0.2,0.7,0.2,1.1v2c0,0.1,0,0.1,0,0.2
		h225.7c2.9-0.1,5.3-2.4,5.3-5.3C210.5,552.5,208.1,550.1,205.2,550.1z"/>
	<path id="Rounded_Rectangle_9_copy_8" class="st5" d="M1205.8,550.1h264c2.9,0,5.2,2.3,5.3,5.2l0,0l0,0c0,2.9-2.4,5.3-5.3,5.3h-264
		c-2.9,0-5.3-2.4-5.3-5.3l0,0C1200.5,552.4,1202.8,550.1,1205.8,550.1C1205.7,550.1,1205.7,550.1,1205.8,550.1z"/>
	<path class="st5" d="M52.2,572.6h-72.6c0.1,0.4,0.1,0.7,0,1.1c0.2,0.7,0.2,1.4,0.1,2.2c0.1,0.8,0,1.6-0.2,2.3
		c0.3,0.8,0.3,1.6,0.2,2.4c0.1,0.4,0.1,0.8,0.1,1.2c0.2,0.5,0.4,0.9,0.4,1.4h71.9c2.9,0,5.3-2.4,5.3-5.3
		C57.5,575,55.1,572.6,52.2,572.6z"/>
	<path id="Rounded_Rectangle_9_copy_3" class="st6" d="M-347.3,550.1h264c2.9,0,5.3,2.4,5.3,5.3l0,0c0,2.9-2.4,5.3-5.3,5.3h-264
		c-2.9,0-5.2-2.4-5.3-5.3l0,0C-352.5,552.4-350.1,550.1-347.3,550.1z"/>
	<path id="Rounded_Rectangle_9_copy_4" class="st5" d="M100.8,528.6h48.5c2.9,0,5.3,2.4,5.3,5.3l0,0c0,2.9-2.4,5.3-5.3,5.3h-48.5
		c-2.9,0-5.3-2.4-5.3-5.3l0,0C95.5,530.9,97.9,528.6,100.8,528.6z"/>
	<path id="Rounded_Rectangle_9_copy_9" class="st5" d="M1205.8,506.6h48.5c2.9,0,5.3,2.4,5.3,5.3l0,0c0,2.9-2.4,5.3-5.3,5.3h-48.5
		c-2.9,0-5.3-2.4-5.3-5.3l0,0C1200.5,508.9,1202.9,506.6,1205.8,506.6z"/>
	<path id="Rounded_Rectangle_9_copy_7" class="st5" d="M1235.3,528.1h264c2.9,0,5.3,2.4,5.3,5.3l0,0c0,2.9-2.4,5.3-5.3,5.3h-264
		c-2.9,0-5.3-2.4-5.3-5.3l0,0C1230,530.4,1232.4,528.1,1235.3,528.1z"/>
	<path class="st5" d="M1521.4,506.6h-239.6c-2.9,0-5.3,2.3-5.3,5.3c0,2.9,2.4,5.3,5.3,5.3h239.1
		C1520.1,513.8,1520.6,510,1521.4,506.6z"/>
	<path class="st5" d="M1521.3,528.1h-20.5c-2.9,0-5.3,2.3-5.3,5.3c0,2.9,2.4,5.3,5.3,5.3h20.4c0-0.4,0-0.8,0.1-1.2
		c-0.1-0.3-0.1-0.6-0.1-0.9v-0.1c0-0.3,0-0.6,0.1-0.9c0-0.1,0-0.3,0-0.4c0-0.2-0.1-0.5-0.1-0.7v-0.1c0-0.1,0-0.2,0-0.3
		c0-0.2,0-0.3,0-0.5v-0.1c0-0.1,0-0.2,0-0.3c0-0.1,0-0.3,0-0.4c0-0.2,0-0.4,0.1-0.6c-0.1-0.8-0.1-1.5,0.1-2.2c0-0.1,0-0.2,0-0.3
		c0-0.1,0-0.2,0-0.3C1521.3,529,1521.3,528.5,1521.3,528.1z"/>
	<path id="Rounded_Rectangle_9_copy_7-3" class="st5" d="M1425.3,528.6h48.5c2.9,0,5.3,2.4,5.3,5.3l0,0c0,2.9-2.4,5.3-5.3,5.3h-48.5
		c-2.9,0-5.3-2.4-5.3-5.3l0,0C1420,530.9,1422.4,528.6,1425.3,528.6z"/>
</g>
<g id="illustration">
	<g>
		<path class="st7" d="M345,420.5h102V649H345V420.5z"/>
		<path class="st8" d="M357,539.6h78v6.5h-78V539.6z"/>
		<path id="Rectangle_9_copy" class="st8" d="M357,552.6h78v6.5h-78V552.6z"/>
		<path id="Rectangle_9_copy_2" class="st8" d="M357,565.6h78v6.5h-78V565.6z"/>
		<path id="Rectangle_9_copy_2-2" class="st8" d="M357,578.6h78v6.5h-78V578.6z"/>
		<path id="Rectangle_9_copy_3" class="st8" d="M357,593.1h78v6.5h-78V593.1z"/>
		<path id="Rectangle_9_copy_3-2" class="st8" d="M357,606.1h78v6.5h-78V606.1z"/>
		<path id="Rectangle_9_copy_3-3" class="st8" d="M357,619.1h78v6.5h-78V619.1z"/>
		<path id="Rectangle_9_copy_3-4" class="st8" d="M357,632.1h78v6.5h-78V632.1z"/>
		<path id="Rectangle_9_copy_4" class="st8" d="M357,434.1h78v6.5h-78V434.1z"/>
		<path id="Rectangle_9_copy_4-2" class="st8" d="M357,447.1h78v6.5h-78V447.1z"/>
		<rect id="Rectangle_9_copy_4-3" x="357" y="460.1" class="st8" width="78" height="6.5"/>
		<rect id="Rectangle_9_copy_4-4" x="357" y="473.1" class="st8" width="78" height="6.5"/>
		<rect id="Rectangle_9_copy_4-5" x="357" y="487.6" class="st8" width="78" height="6.5"/>
		<rect id="Rectangle_9_copy_4-6" x="357" y="500.6" class="st8" width="78" height="6.5"/>
		<rect id="Rectangle_9_copy_4-7" x="357" y="513.6" class="st8" width="78" height="6.5"/>
		<rect id="Rectangle_9_copy_4-8" x="357" y="526.6" class="st8" width="78" height="6.5"/>
		<path id="Rectangle_8_copy_5" class="st9" d="M810,460.6h102v188.5H810V460.6z"/>
		<path id="Rectangle_8_copy_6" class="st7" d="M911,403h82v246h-82V403z"/>
		<rect x="956" y="502.1" class="st8" width="80" height="14"/>
		<path id="Rectangle_16_copy" class="st8" d="M956,533.1h80v14h-80V533.1z"/>
		<path id="Rectangle_16_copy_2" class="st8" d="M956,567.6h80v14h-80V567.6z"/>
		<path id="Rectangle_16_copy_3" class="st8" d="M956,600.1h80v14h-80V600.1z"/>
		<path id="Rectangle_8_copy_2" class="st7" d="M548,444.6h102v204.5H548V444.6z"/>
		<path class="st8" d="M560.5,457.6h75v181.5h-75V457.6z"/>
		<path id="Rectangle_8_copy_3" class="st7" d="M650,523.1h153.5v126H650V523.1z"/>
		<path class="st8" d="M681,537.6h22.5v22.5H681V537.6z"/>
		<path id="Rectangle_14_copy" class="st8" d="M681,570.6h22.5v22.5H681V570.6z"/>
		<path id="Rectangle_14_copy_2" class="st8" d="M681,605.6h22.5v22.5H681V605.6z"/>
		<path id="Rectangle_8_copy_4" class="st7" d="M737.5,378.5H810V649h-72.5V378.5z"/>
		<path id="Rectangle_8_copy" class="st8" d="M446,471.1h102v178H446V471.1z"/>
		<path id="Rectangle_8_copy_7" class="st8" d="M993,471.1h102v178H993V471.1z"/>
		<path id="Polygon_1" class="st10" d="M773,607.6l12,21h-24L773,607.6z"/>
		<path id="Polygon_1_copy" class="st10" d="M773,539.1l12,21h-24L773,539.1z"/>
		<path id="Polygon_1_copy_2" class="st10" d="M773,473.1l12,21h-24L773,473.1z"/>
		<path id="Polygon_1_copy_3" class="st10" d="M773,408l12,21h-24L773,408z"/>
	</g>
	<rect x="459.5" y="486.1" class="st11" width="16" height="16"/>
	<rect id="Rectangle_10_copy" x="487.5" y="516.6" class="st11" width="16" height="16"/>
	<path id="Rectangle_10_copy_2" class="st11" d="M517,551.6h16v16h-16V551.6z"/>
	<path id="Rectangle_10_copy_3" class="st11" d="M459.5,612.1h16v16h-16V612.1z"/>
	<path id="Rectangle_10_copy_3-2" class="st11" d="M489,584.1h16v16h-16V584.1z"/>
	<path class="st12" d="M1028,501.6l-96.5-71.5H782v15.5c0,0,1.2,16-16,16H574.5c0,0-11.5-2-11.5,7.5v38l-30.5,23h-112"/>
	<rect x="596" y="460.6" class="st13" width="34.5" height="2"/>
	<rect id="Rectangle_11_copy" x="692.5" y="460.6" class="st13" width="34.5" height="2"/>
	<path id="Rectangle_11_copy_2" class="st14" d="M942.5,556.1H977v2h-34.5V556.1z"/>
	<path id="Rectangle_11_copy_3" class="st15" d="M961,451l27.8,20.5l-1.2,1.6l-27.8-20.5L961,451z"/>
	<path class="st12" d="M676,462.6l61,61v58"/>
	<circle id="Ellipse_1_copy_10" class="st16" cx="782.5" cy="431.6" r="13.1"/>
	<path class="st17" d="M378,454.1l40.5,39.5v37h114L456,454.1h-79"/>
	<path class="st18" d="M737,585.6l-54,54H530l-110-110"/>
	<path class="st18" d="M916,557.1h88l23.5-23.5v-32"/>
	<path class="st14" d="M595,638.6h26v2h-26V638.6z"/>
	<rect id="Rectangle_7_copy" x="629.5" y="460.6" class="st19" width="26" height="2"/>
	<path id="Ellipse_1_copy_9" class="st20" d="M563.3,471.1c7,0,12.8,5.7,12.8,12.8c0,7-5.7,12.8-12.8,12.8c-7,0-12.8-5.7-12.8-12.8
		l0,0C550.5,476.8,556.2,471.1,563.3,471.1L563.3,471.1z"/>
	<circle class="st21" cx="563" cy="483.6" r="7.5"/>
	<path class="st12" d="M573,491.1l49,49h38l23,23v76.5"/>
	<circle id="Ellipse_1_copy" class="st21" cx="420.5" cy="530.6" r="7.5"/>
	<circle id="Ellipse_1_copy_2" class="st21" cx="914.5" cy="556.6" r="7.5"/>
	<circle id="Ellipse_1_copy_3" class="st21" cx="1028" cy="499.6" r="7.5"/>
	<circle id="Ellipse_1_copy_4" class="st21" cx="782.5" cy="431.6" r="7.5"/>
	<path id="Ellipse_1_copy_11" class="st16" d="M737,572c7.2,0,13.1,5.8,13.1,13.1s-5.8,13.1-13.1,13.1c-7.2,0-13.1-5.8-13.1-13.1
		l0,0C723.9,577.9,729.8,572,737,572z"/>
	<circle id="Ellipse_1_copy_11-2" class="st21" cx="737" cy="585.1" r="7.5"/>
	<circle id="Ellipse_1_copy_5" class="st21" cx="676" cy="462.1" r="5"/>
	<circle id="Ellipse_1_copy_12" class="st21" cx="530" cy="638.6" r="5"/>
	<circle id="Ellipse_1_copy_13" class="st21" cx="683" cy="638.6" r="5"/>
	<circle id="Ellipse_1_copy_6" class="st21" cx="532.5" cy="530.1" r="5"/>
	<circle id="Ellipse_1_copy_8" class="st21" cx="377.5" cy="453.6" r="5"/>
</g>
<path class="st22" d="M-55.6,549.2c2-0.2,4-0.6,5-1.7c0.2-0.2,0.4-0.4,0.5-0.5v-4.7c-4.2,0.9-8.5,1.5-12.8,1.8
	c-0.1,0.4-0.3,0.7-0.4,1C-60.8,546.4-58.2,547.9-55.6,549.2z"/>
<path class="st22" d="M-64.2,565.8c-6.2,1.6-8.9-8-2.7-9.6c0.7-0.2,1.5-0.4,2.2-0.5c-1.5-0.8-2.9-1.6-4.4-2.3
	c-3.3-1.7-3-5.3-1.1-7.5c-0.5-0.3-0.9-0.8-1.3-1.3c-9.6,3-22.7,6.7-28.3-2.1c-0.7-1.2-1.2-2.4-1.4-3.6c-1.7,0.6-3.3,1.1-5,1.6
	c-7.6,2.4-15.3,4.4-23.1,6.2c-4.5,3.7-8.7,7.8-13.1,12.2c-3.2,3.2-6.5,6.2-9.8,9.2c9.9,0.2,19.8,0.3,29.6,0.6
	c15.9,0.5,31.5-0.3,47.4-0.6c8.4-0.2,16.7,0.1,25.1,0.3v-6.1C-54.7,563.6-59.5,564.6-64.2,565.8z"/>
<path class="st22" d="M-67.2,520c0.6-0.1,1.3-0.2,1.9-0.3c1.3-0.2,2.4,0,3.3,0.5c1.8-0.2,3.6-0.4,5.4-0.6c-1.4-0.1-2.8-0.2-4.1-0.3
	c-2.1-0.2-4.3-0.6-6.4-1C-67,518.8-67.1,519.4-67.2,520z"/>
<path class="st22" d="M-199.6,569.7c10.4-2.5,21.4-2,32-1.8c0.5,0,0.9,0,1.4,0c1.4-1.4,2.8-2.8,4.2-4.2c3.7-3.7,7.7-7,11.4-10.7
	c0.7-0.7,1.5-1.5,2.2-2.2c-1.3,0.3-2.7,0.5-4,0.8c-4.7,0.9-9.8,1-13.4-2.6c-1.2-1.2-2.1-2.7-2.7-4.3c-9.8-2.4-20-5.3-29.7-3.3
	c-6.3,1.3-9-8.3-2.7-9.6c3.8-0.8,7.4-2.2,11.1-3.7c-0.8-2.9,1.1-6.4,4.7-6.5c10.1-0.3,20.2-0.7,30.3,0c3.5,0.2,7,0.6,10.6,1.1
	c-1.1-6.8-2.6-13.5-4.1-20.2c-1.4-6.3,8.2-8.9,9.6-2.7c0.4,1.9,0.9,3.9,1.3,5.9c17.8-4.9,36.4-5.1,54.8-4.6c2.4,0.1,3.9,1.5,4.5,3.2
	c3-1.3,6.1-2.7,9.1-4c1-0.4,1.9-0.5,2.7-0.3c0.9-0.3,1.9-0.5,3-0.2c4.2,1,8.7,1.8,13.2,2.9v-47.5h-168V575c0.8-1.1,2.1-1.8,3.4-2
	c0-0.2,0-0.4,0.1-0.6c0.4-2.7,2-5,5-5c0.2,0,0.4,0,0.6,0C-206.9,563.2-200,565-199.6,569.7z"/>
<path class="st22" d="M-72.6,587c-6.5,0.1-13.1-0.2-19.6-0.8c-15.7,1.3-31.3,3.1-47,4.2c-15.6,1.1-31.5,2.4-46.6-2.6
	c-1.7-0.6-2.7-1.7-3.2-3.1c-3.8,0.6-7.5,1.6-11.1,3.1c-1.4,0.6-2.6,0.4-3.6-0.2c-1.5,1.6-3.9,1.7-5.8,0.6c-1.3,0.4-2.7,0.4-3.9-0.3
	c-0.2,0-0.3,0-0.5,0c-1.7,0.1-3.1-0.8-4-2.1v70.2h168v-70.9C-57.5,586-65,586.9-72.6,587z"/>
<path class="st22" d="M-132.9,525.6c3.3-0.5,6.6-0.8,9.7-1.3c3.5-0.5,7-1.3,10.5-1.8c-7.5-0.6-15.1-1.7-22.1-4.4
	c0.4,2.4,0.8,4.8,1.1,7.2C-133.4,525.4-133.2,525.5-132.9,525.6z"/>
<path class="st22" d="M-122.5,568.8c4.8,0.2,9.7,0.2,14.5,0.2v-7.9h-36.5c-1.8,1.7-3.7,3.4-5.5,5.1v2
	C-140.8,568.4-131.7,568.5-122.5,568.8z"/>
<path class="st22" d="M-139.2,590.5c-3.6,0.3-7.2,0.5-10.8,0.7v77.9h42v-81.4C-118.4,588.7-128.8,589.7-139.2,590.5z"/>
</svg>
